<?xml version="1.0" encoding="utf-8"?>
<!-- Generator: Adobe Illustrator 23.0.4, SVG Export Plug-In . SVG Version: 6.00 Build 0)  -->
<svg version="1.1" xmlns="http://www.w3.org/2000/svg" xmlns:xlink="http://www.w3.org/1999/xlink" x="0px" y="0px"
	 viewBox="0 0 466.5 409.6" style="enable-background:new 0 0 466.5 409.6;" xml:space="preserve">
<style type="text/css">
	.st0{fill:none;stroke:#FF0000;stroke-width:0.2835;stroke-linecap:round;stroke-linejoin:round;}
</style>
<g id="レイヤー_2">
	<path class="st0" d="M46.3,14.3c26.5,0,325.9,0,356.9,0c17.6,0,25.8,9.2,25.8,24.5c0,32,0,81.3,0,113.7c0,47,19.6,81.4,19.6,126.5
		c0,21.7-0.5,61.6-0.5,86.5c0,16.5,1.8,31.7-17,31.7c-16.9,0-36.1,0-46.8,0c-31.4,0-74.4-98.7-118.5-98.4s-188.7,0-218,0
		c-18.3,0-25.1-7.2-25.1-29.7c0-28.3,0-213.3,0-231.3C22.7,20.6,29.1,14.3,46.3,14.3z"/>
</g>
<g id="レイヤー_1">
	<title>SVG Picture created as redox_rev2-brd.svg date 2018/05/19 09:41:39</title>
	<desc>Picture generated by PCBNEW</desc>
	<g transform="translate(0 0) scale(1 1)">
	</g>
	<g>
		<path class="st0" d="M120.2,29.3h39.6"/>
		<path class="st0" d="M159.8,29.3v39.6"/>
		<path class="st0" d="M159.8,68.9h-39.6"/>
		<path class="st0" d="M120.2,68.9V29.3"/>
	</g>
	<g>
		<path class="st0" d="M174.2,29.3h39.6"/>
		<path class="st0" d="M213.8,29.3v39.6"/>
		<path class="st0" d="M213.8,68.9h-39.6"/>
		<path class="st0" d="M174.2,68.9V29.3"/>
	</g>
	<g>
		<path class="st0" d="M228.2,29.4h39.6"/>
		<path class="st0" d="M267.8,29.4V69"/>
		<path class="st0" d="M267.8,69h-39.6"/>
		<path class="st0" d="M228.2,69V29.4"/>
	</g>
	<g>
		<path class="st0" d="M282.2,29.3h39.6"/>
		<path class="st0" d="M321.8,29.3v39.6"/>
		<path class="st0" d="M321.8,68.9h-39.6"/>
		<path class="st0" d="M282.2,68.9V29.3"/>
	</g>
	<g>
		<path class="st0" d="M336.2,29.3h39.6"/>
		<path class="st0" d="M375.8,29.3v39.6"/>
		<path class="st0" d="M375.8,68.9h-39.6"/>
		<path class="st0" d="M336.2,68.9V29.3"/>
	</g>
	<g>
		<path class="st0" d="M133,83.3h39.6"/>
		<path class="st0" d="M172.6,83.3v39.6"/>
		<path class="st0" d="M172.6,122.9H133"/>
		<path class="st0" d="M133,122.9V83.3"/>
	</g>
	<g>
		<path class="st0" d="M187,83.3h39.6"/>
		<path class="st0" d="M226.6,83.3v39.6"/>
		<path class="st0" d="M226.6,122.9H187"/>
		<path class="st0" d="M187,122.9V83.3"/>
	</g>
	<g>
		<path class="st0" d="M241,83.4h39.6"/>
		<path class="st0" d="M280.6,83.4V123"/>
		<path class="st0" d="M280.6,123H241"/>
		<path class="st0" d="M241,123V83.4"/>
	</g>
	<g>
		<path class="st0" d="M295,83.3h39.6"/>
		<path class="st0" d="M334.6,83.3v39.6"/>
		<path class="st0" d="M334.6,122.9H295"/>
		<path class="st0" d="M295,122.9V83.3"/>
	</g>
	<g>
		<path class="st0" d="M349,83.3h39.6"/>
		<path class="st0" d="M388.6,83.3v39.6"/>
		<path class="st0" d="M388.6,122.9H349"/>
		<path class="st0" d="M349,122.9V83.3"/>
	</g>
	<g>
		<path class="st0" d="M148.7,137.3h39.6"/>
		<path class="st0" d="M188.3,137.3v39.6"/>
		<path class="st0" d="M188.3,176.9h-39.6"/>
		<path class="st0" d="M148.7,176.9v-39.6"/>
	</g>
	<g>
		<path class="st0" d="M202.7,137.3h39.6"/>
		<path class="st0" d="M242.3,137.3v39.6"/>
		<path class="st0" d="M242.3,176.9h-39.6"/>
		<path class="st0" d="M202.7,176.9v-39.6"/>
	</g>
	<g>
		<path class="st0" d="M256.7,137.4h39.6"/>
		<path class="st0" d="M296.3,137.4V177"/>
		<path class="st0" d="M296.3,177h-39.6"/>
		<path class="st0" d="M256.7,177v-39.6"/>
	</g>
	<g>
		<path class="st0" d="M319.2,137.3h39.6"/>
		<path class="st0" d="M358.8,137.3v39.6"/>
		<path class="st0" d="M358.8,176.9h-39.6"/>
		<path class="st0" d="M319.2,176.9v-39.6"/>
	</g>
	<g>
		<path class="st0" d="M373.2,137.3h39.6"/>
		<path class="st0" d="M412.8,137.3v39.6"/>
		<path class="st0" d="M412.8,176.9h-39.6"/>
		<path class="st0" d="M373.2,176.9v-39.6"/>
	</g>
	<g>
		<path class="st0" d="M240.8,191.3h39.6"/>
		<path class="st0" d="M280.4,191.3v39.6"/>
		<path class="st0" d="M280.4,230.9h-39.6"/>
		<path class="st0" d="M240.8,230.9v-39.6"/>
	</g>
	<g>
		<path class="st0" d="M294.8,191.4h39.6"/>
		<path class="st0" d="M334.4,191.4V231"/>
		<path class="st0" d="M334.4,231h-39.6"/>
		<path class="st0" d="M294.8,231v-39.6"/>
	</g>
	<g>
		<path class="st0" d="M348.8,191.3h39.6"/>
		<path class="st0" d="M388.4,191.3v39.6"/>
		<path class="st0" d="M388.4,230.9h-39.6"/>
		<path class="st0" d="M348.8,230.9v-39.6"/>
	</g>
	<g>
		<path class="st0" d="M53.5,245.4h39.6"/>
		<path class="st0" d="M93.1,245.4V285"/>
		<path class="st0" d="M93.1,285H53.5"/>
		<path class="st0" d="M53.5,285v-39.6"/>
	</g>
	<g>
		<path class="st0" d="M337.4,272.4H377"/>
		<path class="st0" d="M377,272.4V312"/>
		<path class="st0" d="M377,312h-39.6"/>
		<path class="st0" d="M337.4,312v-39.6"/>
	</g>
	<g>
		<path class="st0" d="M94.7,137.4h39.6"/>
		<path class="st0" d="M134.3,137.4V177"/>
		<path class="st0" d="M134.3,177H94.7"/>
		<path class="st0" d="M94.7,177v-39.6"/>
	</g>
	<g>
		<path class="st0" d="M40.7,137.3h39.6"/>
		<path class="st0" d="M80.3,137.3v39.6"/>
		<path class="st0" d="M80.3,176.9H40.7"/>
		<path class="st0" d="M40.7,176.9v-39.6"/>
	</g>
	<g>
		<path class="st0" d="M40.7,29.4h39.6"/>
		<path class="st0" d="M80.3,29.4V69"/>
		<path class="st0" d="M80.3,69H40.7"/>
		<path class="st0" d="M40.7,69V29.4"/>
	</g>
	<g>
		<path class="st0" d="M123.4,191.5H163"/>
		<path class="st0" d="M163,191.5v39.6"/>
		<path class="st0" d="M163,231.1h-39.6"/>
		<path class="st0" d="M123.4,231.1v-39.6"/>
	</g>
	<g>
		<path class="st0" d="M53.5,191.3h39.6"/>
		<path class="st0" d="M93.1,191.3v39.6"/>
		<path class="st0" d="M93.1,230.9H53.5"/>
		<path class="st0" d="M53.5,230.9v-39.6"/>
	</g>
	<g>
		<path class="st0" d="M391.1,312h39.6"/>
		<path class="st0" d="M430.7,312v39.6"/>
		<path class="st0" d="M430.7,351.6h-39.6"/>
		<path class="st0" d="M391.1,351.6V312"/>
	</g>
	<circle class="st0" cx="100.2" cy="51.9" r="4.8"/>
	<circle class="st0" cx="399.8" cy="49.2" r="4.8"/>
	<circle class="st0" cx="412.8" cy="250.1" r="4.8"/>
	<circle class="st0" cx="410.9" cy="375.7" r="4.8"/>
	<circle class="st0" cx="112.1" cy="266.6" r="4.8"/>
</g>
</svg>
