<?xml version="1.0" encoding="utf-8"?>
<!-- Generator: Adobe Illustrator 23.0.4, SVG Export Plug-In . SVG Version: 6.00 Build 0)  -->
<svg version="1.1" xmlns="http://www.w3.org/2000/svg" xmlns:xlink="http://www.w3.org/1999/xlink" x="0px" y="0px"
	 viewBox="0 0 466.5 409.6" style="enable-background:new 0 0 466.5 409.6;" xml:space="preserve">
<style type="text/css">
	.st0{fill:none;stroke:#FF0000;stroke-width:0.2835;stroke-linecap:round;stroke-linejoin:round;}
</style>
<g id="レイヤー_2">
	<path class="st0" d="M46.3,14.3c26.5,0,325.9,0,356.9,0c17.6,0,25.8,9.2,25.8,24.5c0,32,0,81.3,0,113.7c0,47,19.6,81.4,19.6,126.5
		c0,21.7-0.5,61.6-0.5,86.5c0,16.5,1.8,31.7-17,31.7c-16.9,0-36.1,0-46.8,0c-31.4,0-74.4-98.7-118.5-98.4s-188.7,0-218,0
		c-18.3,0-25.1-7.2-25.1-29.7c0-28.3,0-213.3,0-231.3C22.7,20.6,29.1,14.3,46.3,14.3z"/>
</g>
<g id="レイヤー_1">
	<title>SVG Picture created as redox_rev2-brd.svg date 2018/05/19 09:41:39</title>
	<desc>Picture generated by PCBNEW</desc>
	<g transform="translate(0 0) scale(1 1)">
	</g>
	<circle class="st0" cx="100.2" cy="51.9" r="4.8"/>
	<circle class="st0" cx="399.8" cy="49.2" r="4.8"/>
	<circle class="st0" cx="412.8" cy="250.1" r="4.8"/>
	<circle class="st0" cx="410.9" cy="375.7" r="4.8"/>
	<circle class="st0" cx="112.1" cy="266.6" r="4.8"/>
</g>
</svg>
