  0
SECTION
  2
HEADER
  9
$ACADVER
  1
AC1012
  9
$DWGCODEPAGE
  3
undefined
  9
$INSBASE
 10
0.0
 20
0.0
 30
0.0
  9
$EXTMIN
 10
1.000000000000000E+20
 20
1.000000000000000E+20
 30
1.000000000000000E+20
  9
$EXTMAX
 10
-1.000000000000000E+20
 20
-1.000000000000000E+20
 30
-1.000000000000000E+20
  9
$LIMMIN
 10
0.0
 20
0.0
  9
$LIMMAX
 10
12.0
 20
9.0
  9
$ORTHOMODE
 70
     0
  9
$REGENMODE
 70
     1
  9
$FILLMODE
 70
     1
  9
$QTEXTMODE
 70
     0
  9
$MIRRTEXT
 70
     1
  9
$DRAGMODE
 70
     2
  9
$LTSCALE
 40
1.0
  9
$OSMODE
 70
    37
  9
$ATTMODE
 70
     1
  9
$TEXTSIZE
 40
0.2
  9
$TRACEWID
 40
0.05
  9
$TEXTSTYLE
  7
STANDARD
  9
$CLAYER
  8
0
  9
$CELTYPE
  6
BYLAYER
  9
$CECOLOR
 62
   256
  9
$CELTSCALE
 40
1.0
  9
$DELOBJ
 70
     1
  9
$DISPSILH
 70
     0
  9
$DIMSCALE
 40
1.0
  9
$DIMASZ
 40
0.18
  9
$DIMEXO
 40
0.0625
  9
$DIMDLI
 40
0.38
  9
$DIMRND
 40
0.0
  9
$DIMDLE
 40
0.0
  9
$DIMEXE
 40
0.18
  9
$DIMTP
 40
0.0
  9
$DIMTM
 40
0.0
  9
$DIMTXT
 40
0.18
  9
$DIMCEN
 40
0.09
  9
$DIMTSZ
 40
0.0
  9
$DIMTOL
 70
     0
  9
$DIMLIM
 70
     0
  9
$DIMTIH
 70
     1
  9
$DIMTOH
 70
     1
  9
$DIMSE1
 70
     0
  9
$DIMSE2
 70
     0
  9
$DIMTAD
 70
     0
  9
$DIMZIN
 70
     0
  9
$DIMBLK
  1

  9
$DIMASO
 70
     1
  9
$DIMSHO
 70
     1
  9
$DIMPOST
  1

  9
$DIMAPOST
  1

  9
$DIMALT
 70
     0
  9
$DIMALTD
 70
     2
  9
$DIMALTF
 40
25.4
  9
$DIMLFAC
 40
1.0
  9
$DIMTOFL
 70
     0
  9
$DIMTVP
 40
0.0
  9
$DIMTIX
 70
     0
  9
$DIMSOXD
 70
     0
  9
$DIMSAH
 70
     0
  9
$DIMBLK1
  1

  9
$DIMBLK2
  1

  9
$DIMSTYLE
  2
STANDARD
  9
$DIMCLRD
 70
     0
  9
$DIMCLRE
 70
     0
  9
$DIMCLRT
 70
     0
  9
$DIMTFAC
 40
1.0
  9
$DIMGAP
 40
0.09
  9
$DIMJUST
 70
     0
  9
$DIMSD1
 70
     0
  9
$DIMSD2
 70
     0
  9
$DIMTOLJ
 70
     1
  9
$DIMTZIN
 70
     0
  9
$DIMALTZ
 70
     0
  9
$DIMALTTZ
 70
     0
  9
$DIMFIT
 70
     3
  9
$DIMUPT
 70
     0
  9
$DIMUNIT
 70
     2
  9
$DIMDEC
 70
     4
  9
$DIMTDEC
 70
     4
  9
$DIMALTU
 70
     2
  9
$DIMALTTD
 70
     2
  9
$DIMTXSTY
  7
STANDARD
  9
$DIMAUNIT
 70
     0
  9
$LUNITS
 70
     2
  9
$LUPREC
 70
     4
  9
$SKETCHINC
 40
0.1
  9
$FILLETRAD
 40
0.5
  9
$AUNITS
 70
     0
  9
$AUPREC
 70
     0
  9
$MENU
  1
.
  9
$ELEVATION
 40
0.0
  9
$PELEVATION
 40
0.0
  9
$THICKNESS
 40
0.0
  9
$LIMCHECK
 70
     0
  9
$CHAMFERA
 40
0.5
  9
$CHAMFERB
 40
0.5
  9
$CHAMFERC
 40
1.0
  9
$CHAMFERD
 40
0.0
  9
$SKPOLY
 70
     0
  9
$TDCREATE
 40
2458665.819780093
  9
$TDUPDATE
 40
2458665.819780093
  9
$TDINDWG
 40
0.0000000116
  9
$TDUSRTIMER
 40
0.0000000116
  9
$USRTIMER
 70
     1
  9
$ANGBASE
 50
0.0
  9
$ANGDIR
 70
     0
  9
$PDMODE
 70
     0
  9
$PDSIZE
 40
0.0
  9
$PLINEWID
 40
0.0
  9
$COORDS
 70
     1
  9
$SPLFRAME
 70
     0
  9
$SPLINETYPE
 70
     6
  9
$SPLINESEGS
 70
     8
  9
$ATTDIA
 70
     0
  9
$ATTREQ
 70
     1
  9
$HANDLING
 70
     1
  9
$HANDSEED
  5
4E
  9
$SURFTAB1
 70
     6
  9
$SURFTAB2
 70
     6
  9
$SURFTYPE
 70
     6
  9
$SURFU
 70
     6
  9
$SURFV
 70
     6
  9
$UCSNAME
  2

  9
$UCSORG
 10
0.0
 20
0.0
 30
0.0
  9
$UCSXDIR
 10
1.0
 20
0.0
 30
0.0
  9
$UCSYDIR
 10
0.0
 20
1.0
 30
0.0
  9
$PUCSNAME
  2

  9
$PUCSORG
 10
0.0
 20
0.0
 30
0.0
  9
$PUCSXDIR
 10
1.0
 20
0.0
 30
0.0
  9
$PUCSYDIR
 10
0.0
 20
1.0
 30
0.0
  9
$USERI1
 70
     0
  9
$USERI2
 70
     0
  9
$USERI3
 70
     0
  9
$USERI4
 70
     0
  9
$USERI5
 70
     0
  9
$USERR1
 40
0.0
  9
$USERR2
 40
0.0
  9
$USERR3
 40
0.0
  9
$USERR4
 40
0.0
  9
$USERR5
 40
0.0
  9
$WORLDVIEW
 70
     1
  9
$SHADEDGE
 70
     3
  9
$SHADEDIF
 70
    70
  9
$TILEMODE
 70
     1
  9
$MAXACTVP
 70
    64
  9
$PINSBASE
 10
0.0
 20
0.0
 30
0.0
  9
$PLIMCHECK
 70
     0
  9
$PEXTMIN
 10
1.000000000000000E+20
 20
1.000000000000000E+20
 30
1.000000000000000E+20
  9
$PEXTMAX
 10
-1.000000000000000E+20
 20
-1.000000000000000E+20
 30
-1.000000000000000E+20
  9
$PLIMMIN
 10
0.0
 20
0.0
  9
$PLIMMAX
 10
12.0
 20
9.0
  9
$UNITMODE
 70
     0
  9
$VISRETAIN
 70
     1
  9
$PLINEGEN
 70
     0
  9
$PSLTSCALE
 70
     1
  9
$TREEDEPTH
 70
  3020
  9
$PICKSTYLE
 70
     1
  9
$CMLSTYLE
  2
STANDARD
  9
$CMLJUST
 70
     0
  9
$CMLSCALE
 40
1.0
  9
$SAVEIMAGES
 70
     1
  0
ENDSEC
  0
SECTION
  2
CLASSES
  0
CLASS
  1
ACDBDICTIONARYWDFLT
  2
AcDbDictionaryWithDefault
  3
ObjectDBX Classes
 90
    32768
280
     0
281
     0
  0
CLASS
  1
VISUALSTYLE
  2
AcDbVisualStyle
  3
ObjectDBX Classes
 90
     4095
280
     0
281
     0
  0
CLASS
  1
MATERIAL
  2
AcDbMaterial
  3
ObjectDBX Classes
 90
     1153
280
     0
281
     0
  0
CLASS
  1
SUN
  2
AcDbSun
  3
SCENEOE
 90
     1024
280
     0
281
     0
  0
CLASS
  1
DICTIONARYVAR
  2
AcDbDictionaryVar
  3
ObjectDBX Classes
 90
        0
280
     0
281
     0
  0
CLASS
  1
XRECORD
  2
AcDbXrecord
  3
AutoCAD 2000
 90
    32768
280
     0
281
     0
  0
CLASS
  1
LWPOLYLINE
  2
AcDbPolyline
  3
AutoCAD 2000
 90
    32768
280
     0
281
     1
  0
CLASS
  1
HATCH
  2
AcDbHatch
  3
AutoCAD 2000
 90
    32768
280
     0
281
     1
  0
CLASS
  1
ACDBPLACEHOLDER
  2
AcDbPlaceHolder
  3
ObjectDBX Classes
 90
        0
280
     0
281
     0
  0
CLASS
  1
LAYOUT
  2
AcDbLayout
  3
ObjectDBX Classes
 90
        0
280
     0
281
     0
  0
ENDSEC
  0
SECTION
  2
TABLES
  0
TABLE
  2
VPORT
  5
8
330
0
100
AcDbSymbolTable
 70
     1
  0
VPORT
  5
29
330
8
100
AcDbSymbolTableRecord
100
AcDbViewportTableRecord
  2
*ACTIVE
 70
     0
 10
0.0
 20
0.0
 11
1.0
 21
1.0
 12
0.0
 22
0.0
 13
0.0
 23
0.0
 14
0.5
 24
0.5
 15
0.5
 25
0.5
 16
0.0
 26
0.0
 36
1.0
 17
75.45096786819566
 27
57.83403599867377
 37
0.0
 40
138.5981900746308
 41
1.110799438990187
 42
50.0
 43
0.0
 44
0.0
 50
0.0
 51
0.0
 71
     0
 72
   100
 73
     1
 74
     3
 75
     0
 76
     0
 77
     0
 78
     0
  0
ENDTAB
  0
TABLE
  2
LTYPE
  5
5
330
0
100
AcDbSymbolTable
 70
     1
  0
LTYPE
  5
14
330
5
100
AcDbSymbolTableRecord
100
AcDbLinetypeTableRecord
  2
BYBLOCK
 70
     0
  3

 72
    65
 73
     0
 40
0.0
  0
LTYPE
  5
15
330
5
100
AcDbSymbolTableRecord
100
AcDbLinetypeTableRecord
  2
BYLAYER
 70
     0
  3

 72
    65
 73
     0
 40
0.0
  0
LTYPE
  5
16
330
5
100
AcDbSymbolTableRecord
100
AcDbLinetypeTableRecord
  2
CONTINUOUS
 70
     0
  3
Solid line
 72
    65
 73
     0
 40
0.0
  0
ENDTAB
  0
TABLE
  2
LAYER
  5
2
330
0
100
AcDbSymbolTable
 70
     3
  0
LAYER
  5
10
330
2
100
AcDbSymbolTableRecord
100
AcDbLayerTableRecord
  2
0
 70
     0
 62
     7
  6
CONTINUOUS
  0
LAYER
  5
40
330
2
100
AcDbSymbolTableRecord
100
AcDbLayerTableRecord
  2
_U_30EC_U_30A4_U_30E4_U_30
 70
     0
 62
     7
  6
CONTINUOUS
  0
LAYER
  5
42
330
2
100
AcDbSymbolTableRecord
100
AcDbLayerTableRecord
  2
_U_30EC_U_30A4_U_30E4_U_31
 70
     5
 62
     7
  6
CONTINUOUS
  0
ENDTAB
  0
TABLE
  2
STYLE
  5
3
330
0
100
AcDbSymbolTable
 70
     1
  0
STYLE
  5
11
330
3
100
AcDbSymbolTableRecord
100
AcDbTextStyleTableRecord
  2
STANDARD
 70
     0
 40
0.0
 41
1.0
 50
0.0
 71
     0
 42
0.2
  3
txt
  4

  0
ENDTAB
  0
TABLE
  2
VIEW
  5
6
330
0
100
AcDbSymbolTable
 70
     0
  0
ENDTAB
  0
TABLE
  2
UCS
  5
7
330
0
100
AcDbSymbolTable
 70
     0
  0
ENDTAB
  0
TABLE
  2
APPID
  5
9
330
0
100
AcDbSymbolTable
 70
     1
  0
APPID
  5
12
330
9
100
AcDbSymbolTableRecord
100
AcDbRegAppTableRecord
  2
ACAD
 70
     0
  0
ENDTAB
  0
TABLE
  2
DIMSTYLE
  5
A
330
0
100
AcDbSymbolTable
 70
     1
  0
DIMSTYLE
105
27
330
A
100
AcDbSymbolTableRecord
100
AcDbDimStyleTableRecord
  2
STANDARD
 70
     0
  3

  4

  5

  6

  7

 40
1.0
 41
0.18
 42
0.0625
 43
0.38
 44
0.18
 45
0.0
 46
0.0
 47
0.0
 48
0.0
140
0.18
141
0.09
142
0.0
143
25.4
144
1.0
145
0.0
146
1.0
147
0.09
 71
     0
 72
     0
 73
     1
 74
     1
 75
     0
 76
     0
 77
     0
 78
     0
170
     0
171
     2
172
     0
173
     0
174
     0
175
     0
176
     0
177
     0
178
     0
270
     2
271
     4
272
     4
273
     2
274
     2
340
11
275
     0
280
     0
281
     0
282
     0
283
     1
284
     0
285
     0
286
     0
287
     3
288
     0
  0
ENDTAB
  0
TABLE
  2
BLOCK_RECORD
  5
1
330
0
100
AcDbSymbolTable
 70
     1
  0
BLOCK_RECORD
  5
1F
330
1
100
AcDbSymbolTableRecord
100
AcDbBlockTableRecord
  2
*MODEL_SPACE
  0
BLOCK_RECORD
  5
1B
330
1
100
AcDbSymbolTableRecord
100
AcDbBlockTableRecord
  2
*PAPER_SPACE
  0
ENDTAB
  0
ENDSEC
  0
SECTION
  2
BLOCKS
  0
BLOCK
  5
20
330
1F
100
AcDbEntity
  8
0
100
AcDbBlockBegin
  2
*MODEL_SPACE
 70
     0
 10
0.0
 20
0.0
 30
0.0
  3
*MODEL_SPACE
  1

  0
ENDBLK
  5
21
330
1F
100
AcDbEntity
  8
0
100
AcDbBlockEnd
  0
BLOCK
  5
1C
330
1B
100
AcDbEntity
 67
     1
  8
0
100
AcDbBlockBegin
  2
*PAPER_SPACE
 70
     0
 10
0.0
 20
0.0
 30
0.0
  3
*PAPER_SPACE
  1

  0
ENDBLK
  5
1D
330
1B
100
AcDbEntity
 67
     1
  8
0
100
AcDbBlockEnd
  0
ENDSEC
  0
SECTION
  2
ENTITIES
  0
SPLINE
  5
41
330
1F
100
AcDbEntity
  8
_U_30EC_U_30A4_U_30E4_U_30
 62
     1
100
AcDbSpline
210
0.0
220
0.0
230
1.0
 70
    11
 71
     3
 72
   317
 73
   313
 74
     0
 42
0.0000000001
 43
0.0000000001
 12
1.0
 22
0.0
 32
0.0
 13
1.0
 23
0.0
 33
0.0
 40
0.0
 40
0.0
 40
0.0
 40
0.0
 40
1.0
 40
1.0
 40
1.0
 40
2.0
 40
2.0
 40
2.0
 40
3.0
 40
3.0
 40
3.0
 40
4.0
 40
4.0
 40
4.0
 40
5.0
 40
5.0
 40
5.0
 40
6.0
 40
6.0
 40
6.0
 40
7.0
 40
7.0
 40
7.0
 40
8.0
 40
8.0
 40
8.0
 40
9.0
 40
9.0
 40
9.0
 40
10.0
 40
10.0
 40
10.0
 40
11.0
 40
11.0
 40
11.0
 40
12.0
 40
12.0
 40
12.0
 40
13.0
 40
13.0
 40
13.0
 40
14.0
 40
14.0
 40
14.0
 40
15.0
 40
15.0
 40
15.0
 40
16.0
 40
16.0
 40
16.0
 40
17.0
 40
17.0
 40
17.0
 40
18.0
 40
18.0
 40
18.0
 40
19.0
 40
19.0
 40
19.0
 40
20.0
 40
20.0
 40
20.0
 40
21.0
 40
21.0
 40
21.0
 40
22.0
 40
22.0
 40
22.0
 40
23.0
 40
23.0
 40
23.0
 40
24.0
 40
24.0
 40
24.0
 40
25.0
 40
25.0
 40
25.0
 40
26.0
 40
26.0
 40
26.0
 40
27.0
 40
27.0
 40
27.0
 40
28.0
 40
28.0
 40
28.0
 40
29.0
 40
29.0
 40
29.0
 40
30.0
 40
30.0
 40
30.0
 40
31.0
 40
31.0
 40
31.0
 40
32.0
 40
32.0
 40
32.0
 40
33.0
 40
33.0
 40
33.0
 40
34.0
 40
34.0
 40
34.0
 40
35.0
 40
35.0
 40
35.0
 40
36.0
 40
36.0
 40
36.0
 40
37.0
 40
37.0
 40
37.0
 40
38.0
 40
38.0
 40
38.0
 40
39.0
 40
39.0
 40
39.0
 40
40.0
 40
40.0
 40
40.0
 40
41.0
 40
41.0
 40
41.0
 40
42.0
 40
42.0
 40
42.0
 40
43.0
 40
43.0
 40
43.0
 40
44.0
 40
44.0
 40
44.0
 40
45.0
 40
45.0
 40
45.0
 40
46.0
 40
46.0
 40
46.0
 40
47.0
 40
47.0
 40
47.0
 40
48.0
 40
48.0
 40
48.0
 40
49.0
 40
49.0
 40
49.0
 40
50.0
 40
50.0
 40
50.0
 40
51.0
 40
51.0
 40
51.0
 40
52.0
 40
52.0
 40
52.0
 40
53.0
 40
53.0
 40
53.0
 40
54.0
 40
54.0
 40
54.0
 40
55.0
 40
55.0
 40
55.0
 40
56.0
 40
56.0
 40
56.0
 40
57.0
 40
57.0
 40
57.0
 40
58.0
 40
58.0
 40
58.0
 40
59.0
 40
59.0
 40
59.0
 40
60.0
 40
60.0
 40
60.0
 40
61.0
 40
61.0
 40
61.0
 40
62.0
 40
62.0
 40
62.0
 40
63.0
 40
63.0
 40
63.0
 40
64.0
 40
64.0
 40
64.0
 40
65.0
 40
65.0
 40
65.0
 40
66.0
 40
66.0
 40
66.0
 40
67.0
 40
67.0
 40
67.0
 40
68.0
 40
68.0
 40
68.0
 40
69.0
 40
69.0
 40
69.0
 40
70.0
 40
70.0
 40
70.0
 40
71.0
 40
71.0
 40
71.0
 40
72.0
 40
72.0
 40
72.0
 40
73.0
 40
73.0
 40
73.0
 40
74.0
 40
74.0
 40
74.0
 40
75.0
 40
75.0
 40
75.0
 40
76.0
 40
76.0
 40
76.0
 40
77.0
 40
77.0
 40
77.0
 40
78.0
 40
78.0
 40
78.0
 40
79.0
 40
79.0
 40
79.0
 40
80.0
 40
80.0
 40
80.0
 40
81.0
 40
81.0
 40
81.0
 40
82.0
 40
82.0
 40
82.0
 40
83.0
 40
83.0
 40
83.0
 40
84.0
 40
84.0
 40
84.0
 40
85.0
 40
85.0
 40
85.0
 40
86.0
 40
86.0
 40
86.0
 40
87.0
 40
87.0
 40
87.0
 40
88.0
 40
88.0
 40
88.0
 40
89.0
 40
89.0
 40
89.0
 40
90.0
 40
90.0
 40
90.0
 40
91.0
 40
91.0
 40
91.0
 40
92.0
 40
92.0
 40
92.0
 40
93.0
 40
93.0
 40
93.0
 40
94.0
 40
94.0
 40
94.0
 40
95.0
 40
95.0
 40
95.0
 40
96.0
 40
96.0
 40
96.0
 40
97.0
 40
97.0
 40
97.0
 40
98.0
 40
98.0
 40
98.0
 40
99.0
 40
99.0
 40
99.0
 40
100.0
 40
100.0
 40
100.0
 40
101.0
 40
101.0
 40
101.0
 40
102.0
 40
102.0
 40
102.0
 40
103.0
 40
103.0
 40
103.0
 40
104.0
 40
104.0
 40
104.0
 40
104.0
 10
12.37031341112575
 20
123.1255471449124
 30
0.0
 10
13.23331852450497
 20
123.1255471449124
 30
0.0
 10
15.56275236610371
 20
123.1255471578202
 30
0.0
 10
18.99385856075193
 20
123.1255471804086
 30
0.0
 10
22.42496475540015
 20
123.1255472029971
 30
0.0
 10
26.95774330309819
 20
123.1255472352665
 30
0.0
 10
32.22743782867536
 20
123.1255472739895
 30
0.0
 10
37.49713235425253
 20
123.1255473127125
 30
0.0
 10
43.50374285771012
 20
123.1255473578898
 30
0.0
 10
49.88251296387585
 20
123.1255474062934
 30
0.0
 10
56.26128307004287
 20
123.1255474546974
 30
0.0
 10
63.01221277891932
 20
123.1255475063282
 30
0.0
 10
69.77054571533516
 20
123.125547557959
 30
0.0
 10
76.52887865175101
 20
123.1255476095901
 30
0.0
 10
83.29461481570657
 20
123.1255476612206
 30
0.0
 10
89.70299783203215
 20
123.1255477096246
 30
0.0
 10
96.11138084835837
 20
123.1255477580286
 30
0.0
 10
102.1624107170533
 20
123.1255478032055
 30
0.0
 10
107.4913310629492
 20
123.1255478419288
 30
0.0
 10
112.8202514088444
 20
123.1255478806521
 30
0.0
 10
117.4270622319393
 20
123.1255479129212
 30
0.0
 10
120.9470071570648
 20
123.1255479355097
 30
0.0
 10
124.4669520821903
 20
123.1255479580982
 30
0.0
 10
126.9000311093452
 20
123.1255479710059
 30
0.0
 10
127.8814878633602
 20
123.1255479710059
 30
0.0
 10
128.8629446173752
 20
123.1255479710059
 30
0.0
 10
129.8317148080349
 20
123.0888005375844
 30
0.0
 10
130.7756116441095
 20
123.00268696502
 30
0.0
 10
131.7195084801847
 20
122.916573392456
 30
0.0
 10
132.6385319616755
 20
122.7810936807484
 30
0.0
 10
133.5204952973543
 20
122.5836291241767
 30
0.0
 10
134.4024586330331
 20
122.386164567605
 30
0.0
 10
135.2473618228991
 20
122.1267151661684
 30
0.0
 10
136.0430180757247
 20
121.7926622141461
 30
0.0
 10
136.8386743285497
 20
121.458609262124
 30
0.0
 10
137.5850836443343
 20
121.0499527595156
 30
0.0
 10
138.2700592318501
 20
120.5540740005999
 30
0.0
 10
138.9550348193659
 20
120.0581952416843
 30
0.0
 10
139.5785766786124
 20
119.4750942264613
 30
0.0
 10
140.1284980183618
 20
118.7921522492088
 30
0.0
 10
140.6784193581118
 20
118.1092102719563
 30
0.0
 10
141.1547201783641
 20
117.3264273326747
 30
0.0
 10
141.545213687891
 20
116.4311847256427
 30
0.0
 10
141.9357071974185
 20
115.535942118611
 30
0.0
 10
142.24039339622
 20
114.5282398438283
 30
0.0
 10
142.4470854930678
 20
113.3954591955738
 30
0.0
 10
142.6537775899156
 20
112.262678547319
 30
0.0
 10
142.7624755848096
 20
111.0048195255925
 30
0.0
 10
142.7609926865216
 20
109.6092634246719
 30
0.0
 10
142.7594458251915
 20
108.1539997817711
 30
0.0
 10
142.7611722738752
 20
105.8268252312758
 30
0.0
 10
142.7652817954342
 20
102.8616082041351
 30
0.0
 10
142.7693913169933
 20
99.8963911769941
 30
0.0
 10
142.7758839114263
 20
96.29313167320824
 30
0.0
 10
142.7838693415931
 20
92.28569812372515
 30
0.0
 10
142.7918547717598
 20
88.27826457424207
 30
0.0
 10
142.8013330376615
 20
83.86665697906244
 30
0.0
 10
142.8114139021566
 20
79.28474376913515
 30
0.0
 10
142.8214947666516
 20
74.70283055920656
 30
0.0
 10
142.83217822974
 20
69.95061173453098
 30
0.0
 10
142.8425740542821
 20
65.26195572605569
 30
0.0
 10
142.8529698788242
 20
60.57329971758041
 30
0.0
 10
142.8630780648199
 20
55.94820652530607
 30
0.0
 10
142.8720083751282
 20
51.62054458018063
 30
0.0
 10
142.8809386854372
 20
47.29288263505584
 30
0.0
 10
142.8886911200589
 20
43.26265193707994
 30
0.0
 10
142.8943754418536
 20
39.76372091720218
 30
0.0
 10
142.9000597636482
 20
36.26478989732506
 30
0.0
 10
142.9036759726158
 20
33.29715855554543
 30
0.0
 10
142.9043338316154
 20
31.09469532281318
 30
0.0
 10
142.9049916906156
 20
28.89223209008028
 30
0.0
 10
142.9026911996479
 20
27.45493696639476
 30
0.0
 10
142.896542121573
 20
27.01667838270457
 30
0.0
 10
142.888831445601
 20
26.46712121505296
 30
0.0
 10
142.8975519063223
 20
25.95606411013148
 30
0.0
 10
142.9195059043102
 20
25.481049905043
 30
0.0
 10
142.9414599022981
 20
25.00603569995453
 30
0.0
 10
142.9766474375527
 20
24.56706439469906
 30
0.0
 10
143.021870910648
 20
24.16167882637885
 30
0.0
 10
143.0670943837433
 20
23.75629325805865
 30
0.0
 10
143.1223537946787
 20
23.38449342667305
 30
0.0
 10
143.1844515440289
 20
23.0438221693256
 30
0.0
 10
143.2465492933791
 20
22.70315091197815
 30
0.0
 10
143.3154853811434
 20
22.39360822866821
 30
0.0
 10
143.3880622078961
 20
22.11273695649801
 30
0.0
 10
143.4606390346487
 20
21.83186568432718
 30
0.0
 10
143.5368566003895
 20
21.57966582329673
 30
0.0
 10
143.6135173056927
 20
21.35368021050829
 30
0.0
 10
143.6901780109958
 20
21.1276945977192
 30
0.0
 10
143.7672818558613
 20
20.92792323317275
 30
0.0
 10
143.8416312408625
 20
20.75190895397055
 30
0.0
 10
143.9159806258631
 20
20.57589467476834
 30
0.0
 10
143.9875755510007
 20
20.42363748091038
 30
0.0
 10
144.0532184168475
 20
20.29268020949892
 30
0.0
 10
144.1188612826942
 20
20.16172293808745
 30
0.0
 10
144.1785520892502
 20
20.05206558912312
 30
0.0
 10
144.2290932370907
 20
19.96125099970688
 30
0.0
 10
144.404532924219
 20
19.64601314234343
 30
0.0
 10
144.6207163716252
 20
19.33492771558117
 30
0.0
 10
144.8594639658043
 20
19.02222640971489
 30
0.0
 10
145.0982115599828
 20
18.70952510384862
 30
0.0
 10
145.359523300935
 20
18.39520791887706
 30
0.0
 10
145.6252195751547
 20
18.07350654509371
 30
0.0
 10
145.8909158493745
 20
17.75180517131037
 30
0.0
 10
146.1609966568619
 20
17.42271960871525
 30
0.0
 10
146.4172823841121
 20
17.08048154760058
 30
0.0
 10
146.6735681113622
 20
16.73824348648656
 30
0.0
 10
146.9160587583746
 20
16.38285292685299
 30
0.0
 10
147.126574711645
 20
16.0085415589934
 30
0.0
 10
147.3370906649155
 20
15.6342301911338
 30
0.0
 10
147.5156319244433
 20
15.24099801504882
 30
0.0
 10
147.6440188767238
 20
14.82307672103004
 30
0.0
 10
147.7724058290049
 20
14.4051554270119
 30
0.0
 10
147.850638474038
 20
13.96254501505997
 30
0.0
 10
147.8605371983184
 20
13.48947717546776
 30
0.0
 10
147.8704359225988
 20
13.01640933587555
 30
0.0
 10
147.8120007261263
 20
12.51288406864369
 30
0.0
 10
147.667051995397
 20
11.97313306406444
 30
0.0
 10
147.5221032646677
 20
11.43338205948519
 30
0.0
 10
147.2906409996802
 20
10.85740531755853
 30
0.0
 10
146.9544855869304
 20
10.23943452857734
 30
0.0
 10
146.3552073586692
 20
9.137752314067702
 30
0.0
 10
145.8463574591255
 20
8.19585966962142
 30
0.0
 10
145.4071843360345
 20
7.378643948570012
 30
0.0
 10
144.9680112129435
 20
6.561428227518604
 30
0.0
 10
144.5985148663058
 20
5.868889429861428
 30
0.0
 10
144.2779437438572
 20
5.265914908928724
 30
0.0
 10
143.957372621408
 20
4.662940387995377
 30
0.0
 10
143.6857267231478
 20
4.149530143787143
 30
0.0
 10
143.4422544968125
 20
3.690571529632334
 30
0.0
 10
143.1987822704766
 20
3.231612915478168
 30
0.0
 10
142.9834837160654
 20
2.827105931377428
 30
0.0
 10
142.7756072813143
 20
2.441937930661636
 30
0.0
 10
142.5677308465631
 20
2.056769929945844
 30
0.0
 10
142.3672765314719
 20
1.690940912613716
 30
0.0
 10
142.1534927837765
 20
1.309338231995493
 30
0.0
 10
141.939709036081
 20
0.9277355513779109
 30
0.0
 10
141.7125958557813
 20
0.5303592074742325
 30
0.0
 10
141.4514016906124
 20
0.0820965536140548
 30
0.0
 10
141.1902075254435
 20
-0.3661661002454812
 30
0.0
 10
140.8949323754067
 20
-0.8653150640608749
 30
0.0
 10
140.5448246882366
 20
-1.450462984503171
 30
0.0
 10
140.1947170010658
 20
-2.035610904944825
 30
0.0
 10
139.789776776763
 20
-2.70675778201274
 30
0.0
 10
139.3092524630625
 20
-3.499016262376677
 30
0.0
 10
138.9390304578405
 20
-4.109413291120262
 30
0.0
 10
138.5403415062548
 20
-4.605756554014464
 30
0.0
 10
138.1192480450576
 20
-5.003030923068647
 30
0.0
 10
137.6981545838611
 20
-5.40030529212283
 30
0.0
 10
137.2546566130531
 20
-5.698510767336994
 30
0.0
 10
136.7948165693879
 20
-5.912632220721787
 30
0.0
 10
136.3349765257226
 20
-6.126753674106579
 30
0.0
 10
135.8587944091994
 20
-6.256791105662
 30
0.0
 10
135.3723326565725
 20
-6.317729387398056
 30
0.0
 10
134.8858709039456
 20
-6.378667669134111
 30
0.0
 10
134.3891295152149
 20
-6.370506801050801
 30
0.0
 10
133.8881709271334
 20
-6.308231655158772
 30
0.0
 10
133.3872123390518
 20
-6.245956509266744
 30
0.0
 10
132.88203655162
 20
-6.129567085565355
 30
0.0
 10
132.3787060015909
 20
-5.974048256065255
 30
0.0
 10
131.8753754515618
 20
-5.818529426565155
 30
0.0
 10
131.3738901389353
 20
-5.623881191266342
 30
0.0
 10
130.8803125004657
 20
-5.405088422179465
 30
0.0
 10
130.386734861996
 20
-5.186295653092588
 30
0.0
 10
129.9010648976826
 20
-4.943358350216362
 30
0.0
 10
129.4293650442789
 20
-4.69126138556272
 30
0.0
 10
128.9576651908751
 20
-4.439164420908436
 30
0.0
 10
128.4999354483811
 20
-4.177907794476734
 30
0.0
 10
128.0622382535497
 20
-3.92247637827698
 30
0.0
 10
127.1615705357116
 20
-3.396864531982529
 30
0.0
 10
126.114864574449
 20
-2.777054862580588
 30
0.0
 10
124.9585550586758
 20
-2.087655407319592
 30
0.0
 10
123.8022455429026
 20
-1.398255952059238
 30
0.0
 10
122.5363324726202
 20
-0.6392667109404725
 30
0.0
 10
121.1972505367405
 20
0.1647042787869838
 30
0.0
 10
119.8581686008614
 20
0.9686752685144401
 30
0.0
 10
118.4459177993864
 20
1.817628006849945
 30
0.0
 10
116.9969328212287
 20
2.686954456545061
 30
0.0
 10
115.547947843071
 20
3.556280906239536
 30
0.0
 10
114.0622286882312
 20
4.44598106729298
 30
0.0
 10
112.5762100456234
 20
5.331446902455671
 30
0.0
 10
111.0901914030156
 20
6.216912737618363
 30
0.0
 10
109.6038732726396
 20
7.098144246890302
 30
0.0
 10
108.1536903434096
 20
7.950533393021767
 30
0.0
 10
106.7035074141801
 20
8.802922539153233
 30
0.0
 10
105.2894596860965
 20
9.626469322144226
 30
0.0
 10
103.9479818480727
 20
10.39656570474502
 30
0.0
 10
102.6065040100489
 20
11.16666208734518
 30
0.0
 10
101.3375960620855
 20
11.88330806955578
 30
0.0
 10
100.1776926930965
 20
12.52189561412647
 30
0.0
 10
99.01778932410687
 20
13.16048315869651
 30
0.0
 10
97.96689053409159
 20
13.72101226562728
 30
0.0
 10
97.06143101196527
 20
14.17887489766841
 30
0.0
 10
95.90338143560163
 20
14.76446397465679
 30
0.0
 10
94.72949364901321
 20
15.35259567047735
 30
0.0
 10
93.53907856419599
 20
15.93348450109421
 30
0.0
 10
92.34866347937879
 20
16.51437333171042
 30
0.0
 10
91.14172109633279
 20
17.08801929712293
 30
0.0
 10
89.91756232705406
 20
17.64463691329585
 30
0.0
 10
88.69340355777531
 20
18.20125452946877
 30
0.0
 10
87.45202840226382
 20
18.74084379640145
 30
0.0
 10
86.19274777251559
 20
19.25361923005801
 30
0.0
 10
84.93346714276737
 20
19.76639466371457
 30
0.0
 10
83.65628103878113
 20
20.25235626409629
 30
0.0
 10
82.36050037255482
 20
20.70171854716535
 30
0.0
 10
81.06471970632852
 20
21.15108083023441
 30
0.0
 10
79.75034447786088
 20
21.56384379599209
 30
0.0
 10
78.4166855991479
 20
21.93022196040124
 30
0.0
 10
77.08302672043524
 20
22.29660012481102
 30
0.0
 10
75.73008419147695
 20
22.61659348787354
 30
0.0
 10
74.35716892426967
 20
22.88041656555163
 30
0.0
 10
72.98425365706271
 20
23.14423964322972
 30
0.0
 10
71.59136565160581
 20
23.35189243552466
 30
0.0
 10
70.17781581989532
 20
23.49358945839991
 30
0.0
 10
68.76426598818513
 20
23.63528648127517
 30
0.0
 10
67.33005433022136
 20
23.71102773473074
 30
0.0
 10
65.87449175800002
 20
23.71102773473074
 30
0.0
 10
64.04267572673712
 20
23.71102773473074
 30
0.0
 10
62.03798615270867
 20
23.71102773473074
 30
0.0
 10
59.91322666899359
 20
23.71102773473074
 30
0.0
 10
57.78846718527819
 20
23.71102773473074
 30
0.0
 10
55.54363779187648
 20
23.71102773473074
 30
0.0
 10
53.23154212186707
 20
23.71102773473074
 30
0.0
 10
50.91944645185765
 20
23.71102773473074
 30
0.0
 10
48.54008450524054
 20
23.71102773473074
 30
0.0
 10
46.14625991509465
 20
23.71102773473074
 30
0.0
 10
43.75243532494908
 20
23.71102773473074
 30
0.0
 10
41.34414809127441
 20
23.71102773473074
 30
0.0
 10
38.97420184715021
 20
23.71102773473074
 30
0.0
 10
36.60425560302602
 20
23.71102773473074
 30
0.0
 10
34.2726503484523
 20
23.71102773473074
 30
0.0
 10
32.03218971650765
 20
23.71102773473074
 30
0.0
 10
29.79172908456299
 20
23.71102773473074
 30
0.0
 10
27.64241307524742
 20
23.71102773473074
 30
0.0
 10
25.63704532164049
 20
23.71102773473074
 30
0.0
 10
23.63167756803356
 20
23.71102773473074
 30
0.0
 10
21.77025807013462
 20
23.71102773473074
 30
0.0
 10
20.10559046102327
 20
23.71102773473074
 30
0.0
 10
18.44092285191158
 20
23.71102773473074
 30
0.0
 10
16.97300713158747
 20
23.71102773473074
 30
0.0
 10
15.75464693312921
 20
23.71102773473074
 30
0.0
 10
14.93629422380891
 20
23.71102773473074
 30
0.0
 10
14.14269706539832
 20
23.73274551279505
 30
0.0
 10
13.3804583186458
 20
23.78719474097283
 30
0.0
 10
12.6182195718936
 20
23.8416439691506
 30
0.0
 10
11.88733923679947
 20
23.92882464744054
 30
0.0
 10
11.19442017411142
 20
24.05975044789244
 30
0.0
 10
10.50150111142337
 20
24.19067624834369
 30
0.0
 10
9.846543321142049
 20
24.36534717095625
 30
0.0
 10
9.23614966401516
 20
24.59477688777734
 30
0.0
 10
8.625756006887952
 20
24.82420660459907
 30
0.0
 10
8.059926482915817
 20
25.10839511562996
 30
0.0
 10
7.545263952845816
 20
25.45835609291788
 30
0.0
 10
7.030601422775816
 20
25.80831707020579
 30
0.0
 10
6.567105886608913
 20
26.22405051375073
 30
0.0
 10
6.161380205092489
 20
26.71657009560182
 30
0.0
 10
5.755654523576387
 20
27.20908967745292
 30
0.0
 10
5.407698696710763
 20
27.77839539760888
 30
0.0
 10
5.124115585244284
 20
28.43550092811887
 30
0.0
 10
4.840532473777805
 20
29.09260645862885
 30
0.0
 10
4.621322077710471
 20
29.83751179949284
 30
0.0
 10
4.473087257789985
 20
30.68123062275807
 30
0.0
 10
4.324852437869498
 20
31.52494944602329
 30
0.0
 10
4.247593194096501
 20
32.46748175169103
 30
0.0
 10
4.247912387218696
 20
33.51984121180848
 30
0.0
 10
4.248427140816045
 20
35.21696804567114
 30
0.0
 10
4.25092841497527
 20
37.66913192755159
 30
0.0
 10
4.254647135410631
 20
40.67480484054126
 30
0.0
 10
4.258365855845993
 20
43.68047775353028
 30
0.0
 10
4.263302022557811
 20
47.23965969762853
 30
0.0
 10
4.268686561260026
 20
51.15082265592488
 30
0.0
 10
4.27407109996224
 20
55.06198561422123
 30
0.0
 10
4.279904010655493
 20
59.32512958671696
 30
0.0
 10
4.285416219054045
 20
63.7387265565003
 30
0.0
 10
4.290928427452275
 20
68.15232352628365
 30
0.0
 10
4.296119933555805
 20
72.71637349335525
 30
0.0
 10
4.300221663078573
 20
77.22934844080558
 30
0.0
 10
4.304323392601341
 20
81.74232338825591
 30
0.0
 10
4.307335345543988
 20
86.20422331608466
 30
0.0
 10
4.308488447620777
 20
90.41352020738101
 30
0.0
 10
4.309641549697244
 20
94.6228170986777
 30
0.0
 10
4.308935800907852
 20
98.57951095344262
 30
0.0
 10
4.305602126967181
 20
102.082073754766
 30
0.0
 10
4.302268453026191
 20
105.5846365560893
 30
0.0
 10
4.2963068539336
 20
108.6330683039704
 30
0.0
 10
4.286948255403992
 20
111.0258409815001
 30
0.0
 10
4.277589656874384
 20
113.4186136590297
 30
0.0
 10
4.264834058908079
 20
115.1557272662076
 30
0.0
 10
4.247912387218696
 20
116.035653786123
 30
0.0
 10
4.230990715529312
 20
116.9155803060387
 30
0.0
 10
4.298677385714647
 20
117.6863047797064
 30
0.0
 10
4.435901537431497
 20
118.3613788668148
 30
0.0
 10
4.573125689148346
 20
119.0364529539229
 30
0.0
 10
4.779887322396713
 20
119.6158766544717
 30
0.0
 10
5.041115576834677
 20
120.1132016281493
 30
0.0
 10
5.302343831272641
 20
120.6105266018268
 30
0.0
 10
5.618038706899242
 20
121.0257528486328
 30
0.0
 10
5.973129343372559
 20
121.3724320282558
 30
0.0
 10
6.328219979845876
 20
121.7191112078791
 30
0.0
 10
6.722706377165592
 20
121.9972433203192
 30
0.0
 10
7.141517674989144
 20
122.2203800252647
 30
0.0
 10
7.560328972812696
 20
122.4435167302102
 30
0.0
 10
8.003465171140085
 20
122.6116580276608
 30
0.0
 10
8.455855409628754
 20
122.7383555773052
 30
0.0
 10
8.908245648117422
 20
122.8650531269495
 30
0.0
 10
9.369889926767046
 20
122.9503069287873
 30
0.0
 10
9.82571738523539
 20
123.0076686425068
 30
0.0
 10
10.28154484370373
 20
123.0650303562264
 30
0.0
 10
10.73155548199015
 20
123.0944999818277
 30
0.0
 10
11.16067843975305
 20
123.1096291789994
 30
0.0
 10
11.58980139751563
 20
123.1247583761709
 30
0.0
 10
11.99803667475405
 20
123.1255471449124
 30
0.0
 10
12.37031341112575
 20
123.1255471449124
 30
0.0
  0
ENDSEC
  0
SECTION
  2
OBJECTS
  0
DICTIONARY
  5
C
330
0
100
AcDbDictionary
  3
ACAD_GROUP
350
D
  3
ACAD_LAYOUT
350
1A
  3
ACAD_MATERIAL
350
3B
  3
ACAD_MLEADERSTYLE
350
45
  3
ACAD_MLINESTYLE
350
17
  3
ACAD_PLOTSETTINGS
350
19
  3
ACAD_VISUALSTYLE
350
2A
  3
ACDBVARIABLEDICTIONARY
350
43
1001
ACAD
1000
TREAT_AS_HARD
1070
     0
  0
DICTIONARY
  5
D
102
{ACAD_REACTORS
330
C
102
}
330
C
100
AcDbDictionary
1001
ACAD
1000
TREAT_AS_HARD
1070
     0
  0
DICTIONARY
  5
1A
102
{ACAD_REACTORS
330
C
102
}
330
C
100
AcDbDictionary
1001
ACAD
1000
TREAT_AS_HARD
1070
     0
  0
DICTIONARY
  5
3B
102
{ACAD_REACTORS
330
C
102
}
330
C
100
AcDbDictionary
  3
BYBLOCK
350
3D
  3
BYLAYER
350
3C
  3
GLOBAL
350
3E
1001
ACAD
1000
TREAT_AS_HARD
1070
     0
  0
DICTIONARY
  5
45
102
{ACAD_REACTORS
330
C
102
}
330
C
100
AcDbDictionary
1001
ACAD
1000
TREAT_AS_HARD
1070
     0
  0
DICTIONARY
  5
17
102
{ACAD_REACTORS
330
C
102
}
330
C
100
AcDbDictionary
  3
STANDARD
350
18
1001
ACAD
1000
TREAT_AS_HARD
1070
     0
  0
DICTIONARY
  5
19
102
{ACAD_REACTORS
330
C
102
}
330
C
100
AcDbDictionary
1001
ACAD
1000
TREAT_AS_HARD
1070
     0
  0
DICTIONARY
  5
2A
102
{ACAD_REACTORS
330
C
102
}
330
C
100
AcDbDictionary
  3
2DWIREFRAME
350
2F
  3
3DWIREFRAME
350
30
  3
3D_HIDDEN
350
31
  3
BASIC
350
32
  3
BRIGHTEN
350
36
  3
COLORCHANGE
350
3A
  3
CONCEPTUAL
350
34
  3
DIM
350
35
  3
FACEPATTERN
350
39
  3
FLAT
350
2B
  3
FLATWITHEDGES
350
2C
  3
GOURAUD
350
2D
  3
GOURAUDWITHEDGES
350
2E
  3
LINEPATTERN
350
38
  3
REALISTIC
350
33
  3
THICKEN
350
37
1001
ACAD
1000
TREAT_AS_HARD
1070
     0
  0
DICTIONARY
  5
43
102
{ACAD_REACTORS
330
C
102
}
330
C
100
AcDbDictionary
  3
DIMASSOC
350
46
  3
HIDETEXT
350
47
1001
ACAD
1000
TREAT_AS_HARD
1070
     0
  0
MATERIAL
  5
3D
102
{ACAD_REACTORS
330
3B
102
}
102
{ACAD_XDICTIONARY
360
4A
102
}
330
3B
100
AcDbMaterial
  1
ByBlock
  0
MATERIAL
  5
3C
102
{ACAD_REACTORS
330
3B
102
}
102
{ACAD_XDICTIONARY
360
48
102
}
330
3B
100
AcDbMaterial
  1
ByLayer
  0
MATERIAL
  5
3E
102
{ACAD_REACTORS
330
3B
102
}
102
{ACAD_XDICTIONARY
360
4C
102
}
330
3B
100
AcDbMaterial
  1
Global
  0
MLINESTYLE
  5
18
102
{ACAD_REACTORS
330
17
102
}
330
17
100
AcDbMlineStyle
  2
Standard
 70
     0
  3

 62
   256
 51
90.0
 52
90.0
 71
     2
 49
0.5
 62
   256
  6
BYLAYER
 49
-0.5
 62
   256
  6
BYLAYER
  0
ACAD_PROXY_OBJECT
  5
2F
102
{ACAD_REACTORS
330
2A
102
}
330
2A
100
AcDbZombieObject
 90
      499
 91
      501
 93
      436
310
42CC9915DA5C99599C985B595049028333333333333E3BF0000000000000FB0107901411070040501600405405064090741402480A0340
1001
ACAD
1000
AcDbSavedByObjectVersion
1070
     0
  0
ACAD_PROXY_OBJECT
  5
30
102
{ACAD_REACTORS
330
2A
102
}
330
2A
100
AcDbZombieObject
 90
      499
 91
      501
 93
      436
310
42CCD915DA5C99599C985B595059028333333333333E3BF0000000000000FB0107901411070040501600405405064090741402480A0340
1001
ACAD
1000
AcDbSavedByObjectVersion
1070
     0
  0
ACAD_PROXY_OBJECT
  5
31
102
{ACAD_REACTORS
330
2A
102
}
330
2A
100
AcDbZombieObject
 90
      499
 91
      501
 93
      500
310
424CD108121A5919195B90640502408333333333333E3BF0000000000000FB01079024090700405020000000000001110200405405064090740C02480A0340
1001
ACAD
1000
AcDbSavedByObjectVersion
1070
     0
  0
ACAD_PROXY_OBJECT
  5
32
102
{ACAD_REACTORS
330
2A
102
}
330
2A
100
AcDbZombieObject
 90
      499
 91
      501
 93
      388
310
4150985CDA58D07406404333333333333E3BF0000000000000FB0107A41107004050150841D405064090741402480A0350
1001
ACAD
1000
AcDbSavedByObjectVersion
1070
     0
  0
ACAD_PROXY_OBJECT
  5
36
102
{ACAD_REACTORS
330
2A
102
}
330
2A
100
AcDbZombieObject
 90
      499
 91
      501
 93
      428
310
42109C9A59DA1D195B90C409028333333333333E3BF0000000000000FB010790141107004050150841D405064090741402480A029950
1001
ACAD
1000
AcDbSavedByObjectVersion
1070
     0
  0
ACAD_PROXY_OBJECT
  5
3A
102
{ACAD_REACTORS
330
2A
102
}
330
2A
100
AcDbZombieObject
 90
      499
 91
      501
 93
      452
310
42D0DBDB1BDC90DA185B99D95104090240C333333333333E3BF0000000000000FB0108901411070040501508421405064090741402480A0350
1001
ACAD
1000
AcDbSavedByObjectVersion
1070
     0
  0
ACAD_PROXY_OBJECT
  5
34
102
{ACAD_REACTORS
330
2A
102
}
330
2A
100
AcDbZombieObject
 90
      499
 91
      501
 93
      500
310
4290DBDB98D95C1D1D585B10940D028333333333333E3BF0000000000000FB0107902409070040501000000000000111010841D405064090740C02480A0340
1001
ACAD
1000
AcDbSavedByObjectVersion
1070
     0
  0
ACAD_PROXY_OBJECT
  5
35
102
{ACAD_REACTORS
330
2A
102
}
330
2A
100
AcDbZombieObject
 90
      499
 91
      501
 93
      412
310
40D11A5B50B409028333333333333E3BF0000000000000FB010790141107004050150841D405064090741402480A02677FFFFFD0
1001
ACAD
1000
AcDbSavedByObjectVersion
1070
     0
  0
ACAD_PROXY_OBJECT
  5
39
102
{ACAD_REACTORS
330
2A
102
}
330
2A
100
AcDbZombieObject
 90
      499
 91
      501
 93
      444
310
42D19858D95C185D1D195C9B90F409028333333333333E3BF0000000000000FB010790141107004050150841D405064090741402480A0350
1001
ACAD
1000
AcDbSavedByObjectVersion
1070
     0
  0
ACAD_PROXY_OBJECT
  5
2B
102
{ACAD_REACTORS
330
2A
102
}
330
2A
100
AcDbZombieObject
 90
      499
 91
      501
 93
      388
310
41119B185D240901404333333333333E3BF0000000000000F9010740A41107004050150841D405064090741402480A1B50
1001
ACAD
1000
AcDbSavedByObjectVersion
1070
     0
  0
ACAD_PROXY_OBJECT
  5
2C
102
{ACAD_REACTORS
330
2A
102
}
330
2A
100
AcDbZombieObject
 90
      499
 91
      501
 93
      476
310
43519B185D15DA5D1A115919D95CD0140901404333333333333E3BF0000000000000F9010740901411070040501600405405064090741402480A1B50
1001
ACAD
1000
AcDbSavedByObjectVersion
1070
     0
  0
ACAD_PROXY_OBJECT
  5
2D
102
{ACAD_REACTORS
330
2A
102
}
330
2A
100
AcDbZombieObject
 90
      499
 91
      501
 93
      412
310
41D1DBDD5C985D5910240902404333333333333E3BF0000000000000F9010740A411070040501641D405064090741402480A1B50
1001
ACAD
1000
AcDbSavedByObjectVersion
1070
     0
  0
ACAD_PROXY_OBJECT
  5
2E
102
{ACAD_REACTORS
330
2A
102
}
330
2A
100
AcDbZombieObject
 90
      499
 91
      501
 93
      500
310
4411DBDD5C985D5915DA5D1A115919D95CD0340902404333333333333E3BF0000000000000F9010740901411070040501600405405064090741402480A1B50
1001
ACAD
1000
AcDbSavedByObjectVersion
1070
     0
  0
ACAD_PROXY_OBJECT
  5
38
102
{ACAD_REACTORS
330
2A
102
}
330
2A
100
AcDbZombieObject
 90
      499
 91
      501
 93
      444
310
42D31A5B995C185D1D195C9B90E409028333333333333E3BF0000000000000FB010790141107004050750841D405064090741402483A0350
1001
ACAD
1000
AcDbSavedByObjectVersion
1070
     0
  0
ACAD_PROXY_OBJECT
  5
33
102
{ACAD_REACTORS
330
2A
102
}
330
2A
100
AcDbZombieObject
 90
      499
 91
      501
 93
      420
310
425499585B1A5CDD1A58D08409028333333333333E3BF0000000000000FB01079019070040501508421405064090741402480A1B40
1001
ACAD
1000
AcDbSavedByObjectVersion
1070
     0
  0
ACAD_PROXY_OBJECT
  5
37
102
{ACAD_REACTORS
330
2A
102
}
330
2A
100
AcDbZombieObject
 90
      499
 91
      501
 93
      412
310
41D51A1A58DAD95B90D409028333333333333E3BF0000000000000FB010790141107004050150C41D405064090741402480A0350
1001
ACAD
1000
AcDbSavedByObjectVersion
1070
     0
  0
DICTIONARYVAR
  5
46
102
{ACAD_REACTORS
330
43
102
}
330
43
100
DictionaryVariables
280
     0
  1
2
  0
DICTIONARYVAR
  5
47
102
{ACAD_REACTORS
330
43
102
}
330
43
100
DictionaryVariables
280
     0
  1
1
  0
DICTIONARY
  5
4A
330
3D
100
AcDbDictionary
  3
ACAD_XREC_ROUNDTRIP
360
4B
1001
ACAD
1000
TREAT_AS_HARD
1070
     1
  0
DICTIONARY
  5
48
330
3C
100
AcDbDictionary
  3
ACAD_XREC_ROUNDTRIP
360
49
1001
ACAD
1000
TREAT_AS_HARD
1070
     1
  0
DICTIONARY
  5
4C
330
3E
100
AcDbDictionary
  3
ACAD_XREC_ROUNDTRIP
360
4D
1001
ACAD
1000
TREAT_AS_HARD
1070
     1
  0
XRECORD
  5
4B
102
{ACAD_REACTORS
330
4A
102
}
330
4A
100
AcDbXrecord
102
MATERIAL
148
0.0
149
0.0
149
0.0
 93
        0
 94
      127
282
     0
 72
     1
 77
     1
171
     1
175
     1
179
     1
273
     0
  0
XRECORD
  5
49
102
{ACAD_REACTORS
330
48
102
}
330
48
100
AcDbXrecord
102
MATERIAL
148
0.0
149
0.0
149
0.0
 93
        0
 94
      127
282
     0
 72
     1
 77
     1
171
     1
175
     1
179
     1
273
     0
  0
XRECORD
  5
4D
102
{ACAD_REACTORS
330
4C
102
}
330
4C
100
AcDbXrecord
102
MATERIAL
148
0.0
149
0.0
149
0.0
 93
        0
 94
      127
282
     0
 72
     1
 77
     1
171
     1
175
     1
179
     1
273
     0
  0
ENDSEC
  0
EOF
