<?xml version="1.0" encoding="utf-8"?>
<!-- Generator: Adobe Illustrator 23.0.4, SVG Export Plug-In . SVG Version: 6.00 Build 0)  -->
<svg version="1.1" xmlns="http://www.w3.org/2000/svg" xmlns:xlink="http://www.w3.org/1999/xlink" x="0px" y="0px"
	 viewBox="0 0 436.4 392.9" style="enable-background:new 0 0 436.4 392.9;" xml:space="preserve">
<style type="text/css">
	.st0{fill:none;stroke:#FF0000;stroke-width:0.2835;stroke-miterlimit:10;}
	.st1{fill:none;stroke:#FF0000;stroke-width:0.2835;stroke-linecap:round;stroke-linejoin:round;}
</style>
<g id="layer_2">
	<path class="st0" d="M33.8,5.7c20.2,0,314.6,0,337.6,0s43.5,6.9,43.5,39.5c0,34,0.5,231.1,0.4,241.4c-0.2,12.8,2.7,18.5,3.9,20.6
		c4.1,7.4,15.8,14,8,28.4c-14,25.8-11.1,21.6-22.3,40.1c-8.7,14.3-22.6,7.2-32.9,1.2c-21.1-12.3-69.4-42.2-90.6-52.9
		c-27.1-13.7-57.1-27.9-91.1-27.9c-42.8,0-118,0-146.5,0c-19.1,0-33.6-4.1-33.6-28.7c0-39.7,0.4-220.6,0-241.1
		C9.7,5.8,25.1,5.7,33.8,5.7z"/>
</g>
<g id="layer_1">
	<title>SVG Picture created as kudox_rev1-brd.svg date 2019/08/01 09:00:00</title>
	<desc>Picture generated by PCBNEW</desc>
	<g transform="translate(0 0) scale(1 1)">
	</g>
	<circle class="st1" cx="30.7" cy="217.6" r="4.8"/>
	<circle class="st1" cx="403.7" cy="311.3" r="4.8"/>
	<circle class="st1" cx="397.6" cy="38.8" r="4.8"/>
	<circle class="st1" cx="82.1" cy="71.5" r="4.8"/>
	<circle class="st1" cx="299.1" cy="315.2" r="4.8"/>
</g>
</svg>
