<?xml version="1.0" encoding="utf-8"?>
<!-- Generator: Adobe Illustrator 23.0.4, SVG Export Plug-In . SVG Version: 6.00 Build 0)  -->
<svg version="1.1" xmlns="http://www.w3.org/2000/svg" xmlns:xlink="http://www.w3.org/1999/xlink" x="0px" y="0px"
	 viewBox="0 0 436.4 392.9" style="enable-background:new 0 0 436.4 392.9;" xml:space="preserve">
<style type="text/css">
	.st0{fill:none;stroke:#FF0000;stroke-width:0.2835;stroke-miterlimit:10;}
	.st1{fill:none;stroke:#FF0000;stroke-width:0.2835;stroke-linecap:round;stroke-linejoin:round;}
</style>
<g id="レイヤー_2">
	<path class="st0" d="M33.8,5.7c20.2,0,314.6,0,337.6,0s43.5,6.9,43.5,39.5c0,34,0.5,231.1,0.4,241.4c-0.2,12.8,2.7,18.5,3.9,20.6
		c4.1,7.4,15.8,14,8,28.4c-14,25.8-11.1,21.6-22.3,40.1c-8.7,14.3-22.6,7.2-32.9,1.2c-21.1-12.3-69.4-42.2-90.6-52.9
		c-27.1-13.7-57.1-27.9-91.1-27.9c-42.8,0-118,0-146.5,0c-19.1,0-33.6-4.1-33.6-28.7c0-39.7,0.4-220.6,0-241.1
		C9.7,5.8,25.1,5.7,33.8,5.7z"/>
</g>
<g id="レイヤー_1">
	<title>SVG Picture created as redox_rev2-brd.svg date 2018/05/19 09:41:39</title>
	<desc>Picture generated by PCBNEW</desc>
	<g transform="translate(0 0) scale(1 1)">
	</g>
	<circle class="st1" cx="30.7" cy="217.6" r="4.8"/>
	<circle class="st1" cx="403.7" cy="311.3" r="4.8"/>
	<circle class="st1" cx="397.6" cy="38.8" r="4.8"/>
	<circle class="st1" cx="82.1" cy="71.5" r="4.8"/>
	<g>
		<path class="st1" d="M79.9,20.7h39.6"/>
		<path class="st1" d="M119.5,20.7v39.6"/>
		<path class="st1" d="M119.5,60.3H79.9"/>
		<path class="st1" d="M79.9,60.3V20.7"/>
	</g>
	<g>
		<path class="st1" d="M133.9,20.7h39.6"/>
		<path class="st1" d="M173.5,20.7v39.6"/>
		<path class="st1" d="M173.5,60.3h-39.6"/>
		<path class="st1" d="M133.9,60.3V20.7"/>
	</g>
	<g>
		<path class="st1" d="M187.9,20.8h39.6"/>
		<path class="st1" d="M227.5,20.8v39.6"/>
		<path class="st1" d="M227.5,60.4h-39.6"/>
		<path class="st1" d="M187.9,60.4V20.8"/>
	</g>
	<g>
		<path class="st1" d="M241.9,20.7h39.6"/>
		<path class="st1" d="M281.5,20.7v39.6"/>
		<path class="st1" d="M281.5,60.3h-39.6"/>
		<path class="st1" d="M241.9,60.3V20.7"/>
	</g>
	<g>
		<path class="st1" d="M295.9,20.7h39.6"/>
		<path class="st1" d="M335.5,20.7v39.6"/>
		<path class="st1" d="M335.5,60.3h-39.6"/>
		<path class="st1" d="M295.9,60.3V20.7"/>
	</g>
	<g>
		<path class="st1" d="M92.7,74.7h39.6"/>
		<path class="st1" d="M132.3,74.7v39.6"/>
		<path class="st1" d="M132.3,114.3H92.7"/>
		<path class="st1" d="M92.7,114.3V74.7"/>
	</g>
	<g>
		<path class="st1" d="M146.7,74.7h39.6"/>
		<path class="st1" d="M186.3,74.7v39.6"/>
		<path class="st1" d="M186.3,114.3h-39.6"/>
		<path class="st1" d="M146.7,114.3V74.7"/>
	</g>
	<g>
		<path class="st1" d="M200.7,74.8h39.6"/>
		<path class="st1" d="M240.3,74.8v39.6"/>
		<path class="st1" d="M240.3,114.4h-39.6"/>
		<path class="st1" d="M200.7,114.4V74.8"/>
	</g>
	<g>
		<path class="st1" d="M254.7,74.7h39.6"/>
		<path class="st1" d="M294.3,74.7v39.6"/>
		<path class="st1" d="M294.3,114.3h-39.6"/>
		<path class="st1" d="M254.7,114.3V74.7"/>
	</g>
	<g>
		<path class="st1" d="M308.7,74.7h39.6"/>
		<path class="st1" d="M348.3,74.7v39.6"/>
		<path class="st1" d="M348.3,114.3h-39.6"/>
		<path class="st1" d="M308.7,114.3V74.7"/>
	</g>
	<g>
		<path class="st1" d="M333.4,288.1l34.3,19.8"/>
		<path class="st1" d="M367.7,307.9l-19.8,34.3"/>
		<path class="st1" d="M347.9,342.2l-34.3-19.8"/>
		<path class="st1" d="M313.6,322.4l19.8-34.3"/>
	</g>
	<g>
		<g>
			<path class="st1" d="M119.9,128.8h39.6"/>
			<path class="st1" d="M159.5,128.8v39.6"/>
			<path class="st1" d="M159.5,168.4h-39.6"/>
		</g>
		<path class="st1" d="M119.9,168.4v-39.6"/>
	</g>
	<g>
		<path class="st1" d="M173.9,128.8h39.6"/>
		<path class="st1" d="M213.5,128.8v39.6"/>
		<path class="st1" d="M213.5,168.4h-39.6"/>
		<path class="st1" d="M173.9,168.4v-39.6"/>
	</g>
	<g>
		<path class="st1" d="M227.9,128.9h39.6"/>
		<path class="st1" d="M267.5,128.9v39.6"/>
		<path class="st1" d="M267.5,168.5h-39.6"/>
		<path class="st1" d="M227.9,168.5v-39.6"/>
	</g>
	<g>
		<path class="st1" d="M281.9,128.8h39.6"/>
		<path class="st1" d="M321.5,128.8v39.6"/>
		<path class="st1" d="M321.5,168.4h-39.6"/>
		<path class="st1" d="M281.9,168.4v-39.6"/>
	</g>
	<g>
		<path class="st1" d="M335.9,128.8h39.6"/>
		<path class="st1" d="M375.5,128.8v39.6"/>
		<path class="st1" d="M375.5,168.4h-39.6"/>
		<path class="st1" d="M335.9,168.4v-39.6"/>
	</g>
	<g>
		<path class="st1" d="M25.9,20.8h39.6"/>
		<path class="st1" d="M65.5,20.8v39.6"/>
		<path class="st1" d="M65.5,60.4H25.9"/>
		<path class="st1" d="M25.9,60.4V20.8"/>
	</g>
	<g>
		<path class="st1" d="M31.9,74.6h39.6"/>
		<path class="st1" d="M71.5,74.6v39.6"/>
		<path class="st1" d="M71.5,114.2H31.9"/>
		<path class="st1" d="M31.9,114.2V74.6"/>
	</g>
	<g>
		<path class="st1" d="M46,128.7h39.6"/>
		<path class="st1" d="M85.6,128.7v39.6"/>
		<path class="st1" d="M85.6,168.3H46"/>
		<path class="st1" d="M46,168.3v-39.6"/>
	</g>
	<g>
		<path class="st1" d="M273.6,249.4l38.3,10.2"/>
		<path class="st1" d="M311.9,259.7l-10.3,38.3"/>
		<path class="st1" d="M301.6,297.9l-38.2-10.3"/>
		<path class="st1" d="M263.4,287.7l10.2-38.2"/>
	</g>
	<g>
		<path class="st1" d="M380.2,315.2l34.3,19.8"/>
		<path class="st1" d="M414.5,335l-19.8,34.3"/>
		<path class="st1" d="M394.7,369.3l-34.3-19.8"/>
		<path class="st1" d="M360.4,349.5l19.8-34.3"/>
	</g>
	<g>
		<path class="st1" d="M401.9,74.7v39.6"/>
		<path class="st1" d="M401.9,114.3h-39.6"/>
		<path class="st1" d="M362.3,114.3V74.7"/>
		<path class="st1" d="M362.3,74.7h39.6"/>
	</g>
	<circle class="st1" cx="299.1" cy="315.2" r="4.8"/>
	<g>
		<g>
			<path class="st1" d="M146.7,182.8h39.6"/>
			<path class="st1" d="M186.3,182.8v39.6"/>
			<path class="st1" d="M186.3,222.4h-39.6"/>
		</g>
		<path class="st1" d="M146.7,222.4v-39.6"/>
	</g>
	<g>
		<path class="st1" d="M200.7,182.8h39.6"/>
		<path class="st1" d="M240.3,182.8v39.6"/>
		<path class="st1" d="M240.3,222.4h-39.6"/>
		<path class="st1" d="M200.7,222.4v-39.6"/>
	</g>
	<g>
		<path class="st1" d="M254.7,182.9h39.6"/>
		<path class="st1" d="M294.3,182.9v39.6"/>
		<path class="st1" d="M294.3,222.5h-39.6"/>
		<path class="st1" d="M254.7,222.5v-39.6"/>
	</g>
	<g>
		<path class="st1" d="M308.7,182.8h39.6"/>
		<path class="st1" d="M348.3,182.8v39.6"/>
		<path class="st1" d="M348.3,222.4h-39.6"/>
		<path class="st1" d="M308.7,222.4v-39.6"/>
	</g>
	<g>
		<path class="st1" d="M362.7,182.8h39.6"/>
		<path class="st1" d="M402.3,182.8v39.6"/>
		<path class="st1" d="M402.3,222.4h-39.6"/>
		<path class="st1" d="M362.7,222.4v-39.6"/>
	</g>
	<g>
		<path class="st1" d="M59.1,182.9h39.6"/>
		<path class="st1" d="M98.7,182.9v39.6"/>
		<path class="st1" d="M98.7,222.5H59.1"/>
		<path class="st1" d="M59.1,222.5v-39.6"/>
	</g>
	<g>
		<path class="st1" d="M92.7,237.1h39.6"/>
		<path class="st1" d="M132.3,237.1v39.6"/>
		<path class="st1" d="M132.3,276.7H92.7"/>
		<path class="st1" d="M92.7,276.7v-39.6"/>
	</g>
	<g>
		<path class="st1" d="M146.7,237.1h39.6"/>
		<path class="st1" d="M186.3,237.1v39.6"/>
		<path class="st1" d="M186.3,276.7h-39.6"/>
		<path class="st1" d="M146.7,276.7v-39.6"/>
	</g>
	<g>
		<path class="st1" d="M200.7,237.2h39.6"/>
		<path class="st1" d="M240.3,237.2v39.6"/>
		<path class="st1" d="M240.3,276.8h-39.6"/>
		<path class="st1" d="M200.7,276.8v-39.6"/>
	</g>
	<g>
		<path class="st1" d="M31.9,237h39.6"/>
		<path class="st1" d="M71.5,237v39.6"/>
		<path class="st1" d="M71.5,276.6H31.9"/>
		<path class="st1" d="M31.9,276.6V237"/>
	</g>
</g>
</svg>
