<?xml version="1.0" standalone="no"?>
 <!DOCTYPE svg PUBLIC "-//W3C//DTD SVG 1.1//EN" 
 "http://www.w3.org/Graphics/SVG/1.1/DTD/svg11.dtd"> 
<svg xmlns="http://www.w3.org/2000/svg" version="1.1" 
    width="29.7002cm" height="21.0007cm" viewBox="0 0 116930 82680 ">
<title>SVG Picture created as kudox-brd.svg date 2019/11/06 18:12:08 </title>
  <desc>Picture generated by PCBNEW </desc>
<g style="fill:#000000; fill-opacity:1;stroke:#000000; stroke-opacity:1;
stroke-linecap:round; stroke-linejoin:round; "
 transform="translate(0 0) scale(1 1)">
</g>
<g style="fill:#000000; fill-opacity:0.0; 
stroke:#000000; stroke-width:-0.000393701; stroke-opacity:1; 
stroke-linecap:round; stroke-linejoin:round;">
</g>
<g style="fill:#000000; fill-opacity:0.0; 
stroke:#000000; stroke-width:78.7402; stroke-opacity:1; 
stroke-linecap:round; stroke-linejoin:round;">
<path d="M40712 19829
L40787 19833
" />
<path d="M40787 19833
L40856 19844
" />
<path d="M40856 19844
L40918 19861
" />
<path d="M40918 19861
L40976 19883
" />
<path d="M40976 19883
L41030 19909
" />
<path d="M41030 19909
L41080 19940
" />
<path d="M41080 19940
L41126 19973
" />
<path d="M41126 19973
L41169 20010
" />
<path d="M41169 20010
L41209 20051
" />
<path d="M41209 20051
L41244 20094
" />
<path d="M41244 20094
L41277 20140
" />
<path d="M41277 20140
L41305 20191
" />
<path d="M41305 20191
L41330 20245
" />
<path d="M41330 20245
L41351 20304
" />
<path d="M41351 20304
L41367 20367
" />
<path d="M41367 20367
L41376 20436
" />
<path d="M41376 20436
L41379 20496
" />
<path d="M83981 19590
L83985 19516
" />
<path d="M83985 19516
L83997 19446
" />
<path d="M83997 19446
L84014 19384
" />
<path d="M84014 19384
L84035 19326
" />
<path d="M84035 19326
L84061 19273
" />
<path d="M84061 19273
L84091 19224
" />
<path d="M84091 19224
L84124 19178
" />
<path d="M84124 19178
L84161 19135
" />
<path d="M84161 19135
L84201 19096
" />
<path d="M84201 19096
L84244 19060
" />
<path d="M84244 19060
L84290 19028
" />
<path d="M84290 19028
L84340 18999
" />
<path d="M84340 18999
L84394 18973
" />
<path d="M84394 18973
L84453 18952
" />
<path d="M84453 18952
L84517 18936
" />
<path d="M84517 18936
L84587 18926
" />
<path d="M84587 18926
L84648 18923
" />
<path d="M40553 49080
L40628 49085
" />
<path d="M40628 49085
L40697 49096
" />
<path d="M40697 49096
L40759 49113
" />
<path d="M40759 49113
L40817 49135
" />
<path d="M40817 49135
L40870 49161
" />
<path d="M40870 49161
L40921 49191
" />
<path d="M40921 49191
L40967 49224
" />
<path d="M40967 49224
L41010 49261
" />
<path d="M41010 49261
L41050 49302
" />
<path d="M41050 49302
L41085 49345
" />
<path d="M41085 49345
L41117 49392
" />
<path d="M41117 49392
L41146 49442
" />
<path d="M41146 49442
L41171 49496
" />
<path d="M41171 49496
L41192 49555
" />
<path d="M41192 49555
L41207 49618
" />
<path d="M41207 49618
L41217 49687
" />
<path d="M41217 49687
L41220 49748
" />
<path d="M69723 54118
L69728 54043
" />
<path d="M69728 54043
L69739 53974
" />
<path d="M69739 53974
L69756 53911
" />
<path d="M69756 53911
L69778 53854
" />
<path d="M69778 53854
L69804 53801
" />
<path d="M69804 53801
L69833 53751
" />
<path d="M69833 53751
L69866 53705
" />
<path d="M69866 53705
L69903 53662
" />
<path d="M69903 53662
L69943 53623
" />
<path d="M69943 53623
L69986 53587
" />
<path d="M69986 53587
L70032 53555
" />
<path d="M70032 53555
L70083 53526
" />
<path d="M70083 53526
L70137 53501
" />
<path d="M70137 53501
L70196 53480
" />
<path d="M70196 53480
L70259 53464
" />
<path d="M70259 53464
L70329 53453
" />
<path d="M70329 53453
L70391 53451
" />
<path d="M70391 54785
L70315 54781
" />
<path d="M70315 54781
L70246 54769
" />
<path d="M70246 54769
L70183 54752
" />
<path d="M70183 54752
L70125 54730
" />
<path d="M70125 54730
L70072 54704
" />
<path d="M70072 54704
L70023 54675
" />
<path d="M70023 54675
L69977 54641
" />
<path d="M69977 54641
L69934 54604
" />
<path d="M69934 54604
L69895 54564
" />
<path d="M69895 54564
L69859 54521
" />
<path d="M69859 54521
L69827 54475
" />
<path d="M69827 54475
L69798 54424
" />
<path d="M69798 54424
L69773 54370
" />
<path d="M69773 54370
L69752 54312
" />
<path d="M69752 54312
L69736 54249
" />
<path d="M69736 54249
L69726 54179
" />
<path d="M69726 54179
L69723 54118
" />
<path d="M71058 54118
L71053 54193
" />
<path d="M71053 54193
L71042 54261
" />
<path d="M71042 54261
L71025 54324
" />
<path d="M71025 54324
L71003 54382
" />
<path d="M71003 54382
L70977 54435
" />
<path d="M70977 54435
L70947 54485
" />
<path d="M70947 54485
L70914 54531
" />
<path d="M70914 54531
L70878 54573
" />
<path d="M70878 54573
L70838 54613
" />
<path d="M70838 54613
L70795 54648
" />
<path d="M70795 54648
L70748 54681
" />
<path d="M70748 54681
L70698 54710
" />
<path d="M70698 54710
L70644 54735
" />
<path d="M70644 54735
L70584 54756
" />
<path d="M70584 54756
L70521 54772
" />
<path d="M70521 54772
L70452 54782
" />
<path d="M70452 54782
L70391 54785
" />
<path d="M70391 53451
L70466 53455
" />
<path d="M70466 53455
L70534 53466
" />
<path d="M70534 53466
L70597 53483
" />
<path d="M70597 53483
L70654 53505
" />
<path d="M70654 53505
L70708 53531
" />
<path d="M70708 53531
L70759 53561
" />
<path d="M70759 53561
L70804 53595
" />
<path d="M70804 53595
L70847 53632
" />
<path d="M70847 53632
L70887 53672
" />
<path d="M70887 53672
L70923 53716
" />
<path d="M70923 53716
L70955 53762
" />
<path d="M70955 53762
L70984 53813
" />
<path d="M70984 53813
L71009 53867
" />
<path d="M71009 53867
L71029 53925
" />
<path d="M71029 53925
L71045 53989
" />
<path d="M71045 53989
L71055 54058
" />
<path d="M71055 54058
L71058 54118
" />
<path d="M40045 20496
L40049 20421
" />
<path d="M40049 20421
L40061 20352
" />
<path d="M40061 20352
L40078 20289
" />
<path d="M40078 20289
L40099 20232
" />
<path d="M40099 20232
L40125 20179
" />
<path d="M40125 20179
L40155 20129
" />
<path d="M40155 20129
L40188 20083
" />
<path d="M40188 20083
L40225 20041
" />
<path d="M40225 20041
L40264 20001
" />
<path d="M40264 20001
L40307 19965
" />
<path d="M40307 19965
L40354 19933
" />
<path d="M40354 19933
L40404 19904
" />
<path d="M40404 19904
L40458 19879
" />
<path d="M40458 19879
L40517 19858
" />
<path d="M40517 19858
L40581 19842
" />
<path d="M40581 19842
L40651 19832
" />
<path d="M40651 19832
L40712 19829
" />
<path d="M40712 21163
L40636 21159
" />
<path d="M40636 21159
L40568 21147
" />
<path d="M40568 21147
L40504 21130
" />
<path d="M40504 21130
L40447 21108
" />
<path d="M40447 21108
L40394 21082
" />
<path d="M40394 21082
L40345 21053
" />
<path d="M40345 21053
L40298 21019
" />
<path d="M40298 21019
L40256 20983
" />
<path d="M40256 20983
L40216 20943
" />
<path d="M40216 20943
L40181 20899
" />
<path d="M40181 20899
L40148 20853
" />
<path d="M40148 20853
L40119 20803
" />
<path d="M40119 20803
L40094 20749
" />
<path d="M40094 20749
L40074 20690
" />
<path d="M40074 20690
L40058 20627
" />
<path d="M40058 20627
L40048 20557
" />
<path d="M40048 20557
L40045 20496
" />
<path d="M41379 20496
L41375 20571
" />
<path d="M41375 20571
L41364 20639
" />
<path d="M41364 20639
L41346 20703
" />
<path d="M41346 20703
L41325 20760
" />
<path d="M41325 20760
L41299 20813
" />
<path d="M41299 20813
L41269 20863
" />
<path d="M41269 20863
L41236 20909
" />
<path d="M41236 20909
L41200 20951
" />
<path d="M41200 20951
L41160 20991
" />
<path d="M41160 20991
L41117 21026
" />
<path d="M41117 21026
L41070 21059
" />
<path d="M41070 21059
L41020 21088
" />
<path d="M41020 21088
L40966 21113
" />
<path d="M40966 21113
L40906 21134
" />
<path d="M40906 21134
L40842 21150
" />
<path d="M40842 21150
L40773 21160
" />
<path d="M40773 21160
L40712 21163
" />
<path d="M84648 20258
L84573 20253
" />
<path d="M84573 20253
L84504 20242
" />
<path d="M84504 20242
L84440 20225
" />
<path d="M84440 20225
L84383 20203
" />
<path d="M84383 20203
L84330 20177
" />
<path d="M84330 20177
L84281 20147
" />
<path d="M84281 20147
L84234 20114
" />
<path d="M84234 20114
L84192 20077
" />
<path d="M84192 20077
L84153 20037
" />
<path d="M84153 20037
L84117 19994
" />
<path d="M84117 19994
L84084 19947
" />
<path d="M84084 19947
L84056 19897
" />
<path d="M84056 19897
L84031 19843
" />
<path d="M84031 19843
L84010 19784
" />
<path d="M84010 19784
L83994 19721
" />
<path d="M83994 19721
L83984 19652
" />
<path d="M83984 19652
L83981 19590
" />
<path d="M85315 19590
L85311 19665
" />
<path d="M85311 19665
L85300 19734
" />
<path d="M85300 19734
L85283 19797
" />
<path d="M85283 19797
L85261 19855
" />
<path d="M85261 19855
L85235 19908
" />
<path d="M85235 19908
L85206 19957
" />
<path d="M85206 19957
L85172 20003
" />
<path d="M85172 20003
L85136 20046
" />
<path d="M85136 20046
L85096 20085
" />
<path d="M85096 20085
L85053 20121
" />
<path d="M85053 20121
L85006 20153
" />
<path d="M85006 20153
L84956 20182
" />
<path d="M84956 20182
L84902 20208
" />
<path d="M84902 20208
L84842 20229
" />
<path d="M84842 20229
L84778 20245
" />
<path d="M84778 20245
L84709 20255
" />
<path d="M84709 20255
L84648 20258
" />
<path d="M84648 18923
L84723 18928
" />
<path d="M84723 18928
L84792 18939
" />
<path d="M84792 18939
L84855 18956
" />
<path d="M84855 18956
L84912 18977
" />
<path d="M84912 18977
L84966 19004
" />
<path d="M84966 19004
L85016 19034
" />
<path d="M85016 19034
L85062 19067
" />
<path d="M85062 19067
L85105 19104
" />
<path d="M85105 19104
L85145 19145
" />
<path d="M85145 19145
L85180 19188
" />
<path d="M85180 19188
L85213 19235
" />
<path d="M85213 19235
L85242 19285
" />
<path d="M85242 19285
L85266 19339
" />
<path d="M85266 19339
L85287 19398
" />
<path d="M85287 19398
L85303 19461
" />
<path d="M85303 19461
L85313 19530
" />
<path d="M85313 19530
L85315 19590
" />
<path d="M84568 53761
L84572 53687
" />
<path d="M84572 53687
L84583 53617
" />
<path d="M84583 53617
L84601 53554
" />
<path d="M84601 53554
L84622 53497
" />
<path d="M84622 53497
L84648 53444
" />
<path d="M84648 53444
L84678 53395
" />
<path d="M84678 53395
L84711 53349
" />
<path d="M84711 53349
L84747 53306
" />
<path d="M84747 53306
L84787 53267
" />
<path d="M84787 53267
L84830 53231
" />
<path d="M84830 53231
L84877 53198
" />
<path d="M84877 53198
L84927 53169
" />
<path d="M84927 53169
L84981 53144
" />
<path d="M84981 53144
L85040 53123
" />
<path d="M85040 53123
L85104 53107
" />
<path d="M85104 53107
L85174 53097
" />
<path d="M85174 53097
L85235 53094
" />
<path d="M85235 54428
L85159 54424
" />
<path d="M85159 54424
L85091 54413
" />
<path d="M85091 54413
L85027 54395
" />
<path d="M85027 54395
L84970 54374
" />
<path d="M84970 54374
L84917 54348
" />
<path d="M84917 54348
L84868 54318
" />
<path d="M84868 54318
L84821 54285
" />
<path d="M84821 54285
L84779 54248
" />
<path d="M84779 54248
L84739 54208
" />
<path d="M84739 54208
L84704 54165
" />
<path d="M84704 54165
L84671 54118
" />
<path d="M84671 54118
L84642 54068
" />
<path d="M84642 54068
L84617 54014
" />
<path d="M84617 54014
L84596 53955
" />
<path d="M84596 53955
L84581 53892
" />
<path d="M84581 53892
L84571 53823
" />
<path d="M84571 53823
L84568 53761
" />
<path d="M85902 53761
L85898 53836
" />
<path d="M85898 53836
L85887 53904
" />
<path d="M85887 53904
L85869 53968
" />
<path d="M85869 53968
L85848 54025
" />
<path d="M85848 54025
L85822 54079
" />
<path d="M85822 54079
L85792 54129
" />
<path d="M85792 54129
L85759 54175
" />
<path d="M85759 54175
L85722 54217
" />
<path d="M85722 54217
L85682 54256
" />
<path d="M85682 54256
L85639 54292
" />
<path d="M85639 54292
L85593 54325
" />
<path d="M85593 54325
L85542 54354
" />
<path d="M85542 54354
L85489 54379
" />
<path d="M85489 54379
L85429 54400
" />
<path d="M85429 54400
L85365 54416
" />
<path d="M85365 54416
L85296 54426
" />
<path d="M85296 54426
L85235 54428
" />
<path d="M85235 53094
L85310 53098
" />
<path d="M85310 53098
L85379 53110
" />
<path d="M85379 53110
L85441 53127
" />
<path d="M85441 53127
L85499 53148
" />
<path d="M85499 53148
L85552 53175
" />
<path d="M85552 53175
L85603 53205
" />
<path d="M85603 53205
L85649 53238
" />
<path d="M85649 53238
L85692 53275
" />
<path d="M85692 53275
L85732 53316
" />
<path d="M85732 53316
L85767 53359
" />
<path d="M85767 53359
L85799 53406
" />
<path d="M85799 53406
L85828 53456
" />
<path d="M85828 53456
L85853 53510
" />
<path d="M85853 53510
L85874 53569
" />
<path d="M85874 53569
L85890 53632
" />
<path d="M85890 53632
L85899 53701
" />
<path d="M85899 53701
L85902 53761
" />
<path d="M39886 49748
L39890 49673
" />
<path d="M39890 49673
L39901 49603
" />
<path d="M39901 49603
L39919 49541
" />
<path d="M39919 49541
L39940 49483
" />
<path d="M39940 49483
L39966 49430
" />
<path d="M39966 49430
L39995 49381
" />
<path d="M39995 49381
L40029 49335
" />
<path d="M40029 49335
L40065 49292
" />
<path d="M40065 49292
L40105 49253
" />
<path d="M40105 49253
L40148 49217
" />
<path d="M40148 49217
L40195 49185
" />
<path d="M40195 49185
L40245 49156
" />
<path d="M40245 49156
L40299 49130
" />
<path d="M40299 49130
L40358 49109
" />
<path d="M40358 49109
L40422 49093
" />
<path d="M40422 49093
L40492 49083
" />
<path d="M40492 49083
L40553 49080
" />
<path d="M40553 50415
L40477 50410
" />
<path d="M40477 50410
L40409 50399
" />
<path d="M40409 50399
L40345 50382
" />
<path d="M40345 50382
L40288 50360
" />
<path d="M40288 50360
L40235 50334
" />
<path d="M40235 50334
L40186 50304
" />
<path d="M40186 50304
L40139 50271
" />
<path d="M40139 50271
L40097 50234
" />
<path d="M40097 50234
L40057 50194
" />
<path d="M40057 50194
L40022 50151
" />
<path d="M40022 50151
L39989 50104
" />
<path d="M39989 50104
L39960 50054
" />
<path d="M39960 50054
L39935 50000
" />
<path d="M39935 50000
L39914 49941
" />
<path d="M39914 49941
L39899 49878
" />
<path d="M39899 49878
L39889 49809
" />
<path d="M39889 49809
L39886 49748
" />
<path d="M41220 49748
L41216 49823
" />
<path d="M41216 49823
L41205 49891
" />
<path d="M41205 49891
L41187 49954
" />
<path d="M41187 49954
L41166 50012
" />
<path d="M41166 50012
L41140 50065
" />
<path d="M41140 50065
L41110 50115
" />
<path d="M41110 50115
L41077 50161
" />
<path d="M41077 50161
L41040 50203
" />
<path d="M41040 50203
L41000 50242
" />
<path d="M41000 50242
L40957 50278
" />
<path d="M40957 50278
L40911 50311
" />
<path d="M40911 50311
L40860 50340
" />
<path d="M40860 50340
L40806 50365
" />
<path d="M40806 50365
L40747 50386
" />
<path d="M40747 50386
L40683 50402
" />
<path d="M40683 50402
L40614 50412
" />
<path d="M40614 50412
L40553 50415
" />
</g>
<g style="fill:#000000; fill-opacity:0.0; 
stroke:#000000; stroke-width:59.0551; stroke-opacity:1; 
stroke-linecap:round; stroke-linejoin:round;">
<path d="M33698 43498
L39198 43498
" />
<path d="M39198 43498
L39198 48998
" />
<path d="M39198 48998
L33698 48998
" />
<path d="M33698 48998
L33698 43498
" />
<path d="M72163 20986
L77663 20986
" />
<path d="M77663 20986
L77663 26486
" />
<path d="M77663 26486
L72163 26486
" />
<path d="M72163 26486
L72163 20986
" />
<path d="M62864 13482
L68364 13482
" />
<path d="M68364 13482
L68364 18982
" />
<path d="M68364 18982
L62864 18982
" />
<path d="M62864 18982
L62864 13482
" />
<path d="M32848 13482
L38348 13482
" />
<path d="M38348 13482
L38348 18982
" />
<path d="M38348 18982
L32848 18982
" />
<path d="M32848 18982
L32848 13482
" />
<path d="M42958 41494
L37458 41494
" />
<path d="M37458 41494
L37458 35994
" />
<path d="M37458 35994
L42958 35994
" />
<path d="M42958 35994
L42958 41494
" />
<path d="M42147 43498
L47647 43498
" />
<path d="M47647 43498
L47647 48998
" />
<path d="M47647 48998
L42147 48998
" />
<path d="M42147 48998
L42147 43498
" />
<path d="M60919 28490
L66419 28490
" />
<path d="M66419 28490
L66419 33990
" />
<path d="M66419 33990
L60919 33990
" />
<path d="M60919 33990
L60919 28490
" />
<path d="M35616 28490
L41116 28490
" />
<path d="M41116 28490
L41116 33990
" />
<path d="M41116 33990
L35616 33990
" />
<path d="M35616 33990
L35616 28490
" />
<path d="M33694 20986
L39194 20986
" />
<path d="M39194 20986
L39194 26486
" />
<path d="M39194 26486
L33694 26486
" />
<path d="M33694 26486
L33694 20986
" />
<path d="M82076 54400
L86839 57150
" />
<path d="M86839 57150
L84089 61914
" />
<path d="M84089 61914
L79326 59164
" />
<path d="M79326 59164
L82076 54400
" />
<path d="M75568 50652
L80331 53402
" />
<path d="M80331 53402
L77581 58166
" />
<path d="M77581 58166
L72818 55416
" />
<path d="M72818 55416
L75568 50652
" />
<path d="M70368 18982
L70368 13482
" />
<path d="M70368 13482
L75868 13482
" />
<path d="M75868 13482
L75868 18982
" />
<path d="M75868 18982
L70368 18982
" />
<path d="M79667 20986
L85167 20986
" />
<path d="M85167 20986
L85167 26486
" />
<path d="M85167 26486
L79667 26486
" />
<path d="M79667 26486
L79667 20986
" />
<path d="M67279 45273
L72592 46697
" />
<path d="M72592 46697
L71168 52009
" />
<path d="M71168 52009
L65856 50586
" />
<path d="M65856 50586
L67279 45273
" />
<path d="M57155 43498
L62655 43498
" />
<path d="M62655 43498
L62655 48998
" />
<path d="M62655 48998
L57155 48998
" />
<path d="M57155 48998
L57155 43498
" />
<path d="M49651 43498
L55151 43498
" />
<path d="M55151 43498
L55151 48998
" />
<path d="M55151 48998
L49651 48998
" />
<path d="M49651 48998
L49651 43498
" />
<path d="M79643 35990
L85143 35990
" />
<path d="M85143 35990
L85143 41490
" />
<path d="M85143 41490
L79643 41490
" />
<path d="M79643 41490
L79643 35990
" />
<path d="M72139 35994
L77639 35994
" />
<path d="M77639 35994
L77639 41494
" />
<path d="M77639 41494
L72139 41494
" />
<path d="M72139 41494
L72139 35994
" />
<path d="M64635 35994
L70135 35994
" />
<path d="M70135 35994
L70135 41494
" />
<path d="M70135 41494
L64635 41494
" />
<path d="M64635 41494
L64635 35994
" />
<path d="M57131 35994
L62631 35994
" />
<path d="M62631 35994
L62631 41494
" />
<path d="M62631 41494
L57131 41494
" />
<path d="M57131 41494
L57131 35994
" />
<path d="M49627 35994
L55127 35994
" />
<path d="M55127 35994
L55127 41494
" />
<path d="M55127 41494
L49627 41494
" />
<path d="M49627 41494
L49627 35994
" />
<path d="M75927 28490
L81427 28490
" />
<path d="M81427 28490
L81427 33990
" />
<path d="M81427 33990
L75927 33990
" />
<path d="M75927 33990
L75927 28490
" />
<path d="M68423 28490
L73923 28490
" />
<path d="M73923 28490
L73923 33990
" />
<path d="M73923 33990
L68423 33990
" />
<path d="M68423 33990
L68423 28490
" />
<path d="M53415 28490
L58915 28490
" />
<path d="M58915 28490
L58915 33990
" />
<path d="M58915 33990
L53415 33990
" />
<path d="M53415 33990
L53415 28490
" />
<path d="M45911 28490
L51411 28490
" />
<path d="M51411 28490
L51411 33990
" />
<path d="M51411 33990
L45911 33990
" />
<path d="M45911 33990
L45911 28490
" />
<path d="M64659 20986
L70159 20986
" />
<path d="M70159 20986
L70159 26486
" />
<path d="M70159 26486
L64659 26486
" />
<path d="M64659 26486
L64659 20986
" />
<path d="M57155 20986
L62655 20986
" />
<path d="M62655 20986
L62655 26486
" />
<path d="M62655 26486
L57155 26486
" />
<path d="M57155 26486
L57155 20986
" />
<path d="M49651 20986
L55151 20986
" />
<path d="M55151 20986
L55151 26486
" />
<path d="M55151 26486
L49651 26486
" />
<path d="M49651 26486
L49651 20986
" />
<path d="M42147 20986
L47647 20986
" />
<path d="M47647 20986
L47647 26486
" />
<path d="M47647 26486
L42147 26486
" />
<path d="M42147 26486
L42147 20986
" />
<path d="M83372 13482
L83372 18982
" />
<path d="M83372 18982
L77872 18982
" />
<path d="M77872 18982
L77872 13482
" />
<path d="M77872 13482
L83372 13482
" />
<path d="M55360 13482
L60860 13482
" />
<path d="M60860 13482
L60860 18982
" />
<path d="M60860 18982
L55360 18982
" />
<path d="M55360 18982
L55360 13482
" />
<path d="M47856 13482
L53356 13482
" />
<path d="M53356 13482
L53356 18982
" />
<path d="M53356 18982
L47856 18982
" />
<path d="M47856 18982
L47856 13482
" />
<path d="M40352 13482
L45852 13482
" />
<path d="M45852 13482
L45852 18982
" />
<path d="M45852 18982
L40352 18982
" />
<path d="M40352 18982
L40352 13482
" />
</g>
<g style="fill:#000000; fill-opacity:0.0; 
stroke:#000000; stroke-width:78.7402; stroke-opacity:1; 
stroke-linecap:round; stroke-linejoin:round;">
<path d="M86220 18724
L86220 20182
" />
<path d="M77473 12204
L77573 12204
" />
<path d="M77573 12204
L77661 12204
" />
<path d="M77661 12204
L77759 12204
" />
<path d="M77759 12204
L77844 12204
" />
<path d="M77844 12204
L77928 12203
" />
<path d="M77928 12203
L78021 12203
" />
<path d="M78021 12203
L78133 12203
" />
<path d="M78133 12203
L78213 12203
" />
<path d="M78213 12203
L78292 12203
" />
<path d="M78292 12203
L78408 12203
" />
<path d="M78408 12203
L78522 12203
" />
<path d="M78522 12203
L78634 12203
" />
<path d="M78634 12203
L78744 12203
" />
<path d="M78744 12203
L78852 12203
" />
<path d="M78852 12203
L78957 12203
" />
<path d="M78957 12203
L79061 12203
" />
<path d="M79061 12203
L79163 12203
" />
<path d="M79163 12203
L79281 12203
" />
<path d="M79281 12203
L79363 12203
" />
<path d="M79363 12203
L79460 12203
" />
<path d="M79460 12203
L79540 12203
" />
<path d="M79540 12203
L79667 12203
" />
<path d="M79667 12203
L79822 12203
" />
<path d="M79822 12203
L81535 12203
" />
<path d="M81535 12203
L81614 12203
" />
<path d="M81614 12203
L81693 12203
" />
<path d="M81693 12203
L81772 12204
" />
<path d="M81772 12204
L81851 12204
" />
<path d="M81851 12204
L81930 12205
" />
<path d="M81930 12205
L82008 12207
" />
<path d="M82008 12207
L82086 12208
" />
<path d="M82086 12208
L82167 12210
" />
<path d="M82167 12210
L82247 12213
" />
<path d="M82247 12213
L82325 12216
" />
<path d="M82325 12216
L82402 12219
" />
<path d="M82402 12219
L82477 12223
" />
<path d="M82477 12223
L82552 12228
" />
<path d="M82552 12228
L82627 12233
" />
<path d="M82627 12233
L82627 12233
" />
<path d="M82627 12233
L82703 12238
" />
<path d="M82703 12238
L82776 12245
" />
<path d="M82776 12245
L82850 12251
" />
<path d="M82850 12251
L82922 12259
" />
<path d="M82922 12259
L82994 12266
" />
<path d="M82994 12266
L83065 12275
" />
<path d="M83065 12275
L83136 12284
" />
<path d="M83136 12284
L83207 12294
" />
<path d="M83207 12294
L83276 12304
" />
<path d="M83276 12304
L83348 12315
" />
<path d="M83348 12315
L83416 12327
" />
<path d="M83416 12327
L83484 12339
" />
<path d="M83484 12339
L83488 12340
" />
<path d="M83488 12340
L83555 12353
" />
<path d="M83555 12353
L83622 12367
" />
<path d="M83622 12367
L83687 12381
" />
<path d="M83687 12381
L83752 12397
" />
<path d="M83752 12397
L83816 12413
" />
<path d="M83816 12413
L83883 12430
" />
<path d="M83883 12430
L83946 12448
" />
<path d="M83946 12448
L84007 12466
" />
<path d="M84007 12466
L84067 12484
" />
<path d="M84067 12484
L84127 12504
" />
<path d="M84127 12504
L84187 12524
" />
<path d="M84187 12524
L84247 12546
" />
<path d="M84247 12546
L84259 12551
" />
<path d="M84259 12551
L84317 12573
" />
<path d="M84317 12573
L84374 12596
" />
<path d="M84374 12596
L84430 12620
" />
<path d="M84430 12620
L84486 12645
" />
<path d="M84486 12645
L84540 12670
" />
<path d="M84540 12670
L84595 12697
" />
<path d="M84595 12697
L84648 12725
" />
<path d="M84648 12725
L84699 12752
" />
<path d="M84699 12752
L84749 12781
" />
<path d="M84749 12781
L84799 12810
" />
<path d="M84799 12810
L84848 12841
" />
<path d="M84848 12841
L84896 12872
" />
<path d="M84896 12872
L84924 12891
" />
<path d="M84924 12891
L84972 12924
" />
<path d="M84972 12924
L85018 12957
" />
<path d="M85018 12957
L85063 12991
" />
<path d="M85063 12991
L85109 13028
" />
<path d="M85109 13028
L85152 13064
" />
<path d="M85152 13064
L85194 13100
" />
<path d="M85194 13100
L85237 13139
" />
<path d="M85237 13139
L85277 13178
" />
<path d="M85277 13178
L85317 13217
" />
<path d="M85317 13217
L85357 13258
" />
<path d="M85357 13258
L85395 13300
" />
<path d="M85395 13300
L85432 13342
" />
<path d="M85432 13342
L85469 13386
" />
<path d="M85469 13386
L85505 13430
" />
<path d="M85505 13430
L85540 13476
" />
<path d="M85540 13476
L85576 13524
" />
<path d="M85576 13524
L85608 13571
" />
<path d="M85608 13571
L85640 13619
" />
<path d="M85640 13619
L85672 13668
" />
<path d="M85672 13668
L85702 13718
" />
<path d="M85702 13718
L85732 13769
" />
<path d="M85732 13769
L85760 13820
" />
<path d="M85760 13820
L85788 13873
" />
<path d="M85788 13873
L85815 13926
" />
<path d="M85815 13926
L85840 13980
" />
<path d="M85840 13980
L85865 14035
" />
<path d="M85865 14035
L85878 14063
" />
<path d="M85878 14063
L85902 14120
" />
<path d="M85902 14120
L85925 14178
" />
<path d="M85925 14178
L85946 14235
" />
<path d="M85946 14235
L85967 14293
" />
<path d="M85967 14293
L85987 14353
" />
<path d="M85987 14353
L86007 14413
" />
<path d="M86007 14413
L86025 14474
" />
<path d="M86025 14474
L86042 14536
" />
<path d="M86042 14536
L86059 14599
" />
<path d="M86059 14599
L86075 14664
" />
<path d="M86075 14664
L86090 14728
" />
<path d="M86090 14728
L86104 14794
" />
<path d="M86104 14794
L86118 14859
" />
<path d="M86118 14859
L86130 14926
" />
<path d="M86130 14926
L86134 14947
" />
<path d="M86134 14947
L86145 15015
" />
<path d="M86145 15015
L86156 15084
" />
<path d="M86156 15084
L86166 15154
" />
<path d="M86166 15154
L86175 15224
" />
<path d="M86175 15224
L86183 15296
" />
<path d="M86183 15296
L86190 15368
" />
<path d="M86190 15368
L86197 15442
" />
<path d="M86197 15442
L86202 15516
" />
<path d="M86202 15516
L86207 15590
" />
<path d="M86207 15590
L86211 15666
" />
<path d="M86211 15666
L86214 15742
" />
<path d="M86214 15742
L86217 15820
" />
<path d="M86217 15820
L86219 15897
" />
<path d="M86219 15897
L86220 15977
" />
<path d="M86220 15977
L86220 16056
" />
<path d="M86220 16056
L86220 16125
" />
<path d="M86220 16125
L86220 18724
" />
<path d="M34250 12210
L34327 12208
" />
<path d="M34327 12208
L34407 12206
" />
<path d="M34407 12206
L34487 12205
" />
<path d="M34487 12205
L34568 12204
" />
<path d="M34568 12204
L34653 12204
" />
<path d="M34653 12204
L34726 12204
" />
<path d="M33724 12250
L33797 12242
" />
<path d="M33797 12242
L33870 12234
" />
<path d="M33870 12234
L33942 12228
" />
<path d="M33942 12228
L34017 12222
" />
<path d="M34017 12222
L34092 12218
" />
<path d="M34092 12218
L34169 12214
" />
<path d="M34169 12214
L34248 12210
" />
<path d="M34248 12210
L34250 12210
" />
<path d="M33185 12356
L33247 12340
" />
<path d="M33247 12340
L33312 12324
" />
<path d="M33312 12324
L33377 12309
" />
<path d="M33377 12309
L33442 12295
" />
<path d="M33442 12295
L33510 12283
" />
<path d="M33510 12283
L33578 12271
" />
<path d="M33578 12271
L33647 12261
" />
<path d="M33647 12261
L33717 12251
" />
<path d="M33717 12251
L33724 12250
" />
<path d="M32667 12560
L32720 12533
" />
<path d="M32720 12533
L32773 12507
" />
<path d="M32773 12507
L32828 12483
" />
<path d="M32828 12483
L32884 12459
" />
<path d="M32884 12459
L32941 12437
" />
<path d="M32941 12437
L32999 12415
" />
<path d="M32999 12415
L33058 12395
" />
<path d="M33058 12395
L33119 12376
" />
<path d="M33119 12376
L33180 12358
" />
<path d="M33180 12358
L33185 12356
" />
<path d="M32207 12894
L32248 12855
" />
<path d="M32248 12855
L32291 12818
" />
<path d="M32291 12818
L32335 12781
" />
<path d="M32335 12781
L32379 12745
" />
<path d="M32379 12745
L32425 12711
" />
<path d="M32425 12711
L32472 12678
" />
<path d="M32472 12678
L32521 12646
" />
<path d="M32521 12646
L32571 12615
" />
<path d="M32571 12615
L32622 12586
" />
<path d="M32622 12586
L32667 12560
" />
<path d="M31840 13390
L31868 13339
" />
<path d="M31868 13339
L31897 13288
" />
<path d="M31897 13288
L31929 13238
" />
<path d="M31929 13238
L31960 13191
" />
<path d="M31960 13191
L31994 13142
" />
<path d="M31994 13142
L32028 13096
" />
<path d="M32028 13096
L32063 13052
" />
<path d="M32063 13052
L32100 13008
" />
<path d="M32100 13008
L32138 12966
" />
<path d="M32138 12966
L32178 12924
" />
<path d="M32178 12924
L32207 12894
" />
<path d="M31602 14080
L31616 14013
" />
<path d="M31616 14013
L31632 13949
" />
<path d="M31632 13949
L31648 13887
" />
<path d="M31648 13887
L31666 13822
" />
<path d="M31666 13822
L31685 13761
" />
<path d="M31685 13761
L31705 13702
" />
<path d="M31705 13702
L31726 13644
" />
<path d="M31726 13644
L31749 13588
" />
<path d="M31749 13588
L31773 13531
" />
<path d="M31773 13531
L31799 13474
" />
<path d="M31799 13474
L31825 13420
" />
<path d="M31825 13420
L31840 13390
" />
<path d="M31528 14995
L31527 14916
" />
<path d="M31527 14916
L31527 14837
" />
<path d="M31527 14837
L31529 14760
" />
<path d="M31529 14760
L31532 14683
" />
<path d="M31532 14683
L31535 14608
" />
<path d="M31535 14608
L31540 14532
" />
<path d="M31540 14532
L31547 14457
" />
<path d="M31547 14457
L31554 14385
" />
<path d="M31554 14385
L31563 14315
" />
<path d="M31563 14315
L31573 14246
" />
<path d="M31573 14246
L31584 14177
" />
<path d="M31584 14177
L31596 14110
" />
<path d="M31596 14110
L31602 14080
" />
<path d="M31544 16968
L31543 16886
" />
<path d="M31543 16886
L31543 16805
" />
<path d="M31543 16805
L31543 16725
" />
<path d="M31543 16725
L31542 16637
" />
<path d="M31542 16637
L31542 16555
" />
<path d="M31542 16555
L31541 16477
" />
<path d="M31541 16477
L31541 16392
" />
<path d="M31541 16392
L31541 16306
" />
<path d="M31541 16306
L31540 16227
" />
<path d="M31540 16227
L31540 16142
" />
<path d="M31540 16142
L31539 16060
" />
<path d="M31539 16060
L31539 15976
" />
<path d="M31539 15976
L31538 15894
" />
<path d="M31538 15894
L31537 15813
" />
<path d="M31537 15813
L31537 15734
" />
<path d="M31537 15734
L31536 15656
" />
<path d="M31536 15656
L31536 15576
" />
<path d="M31536 15576
L31535 15489
" />
<path d="M31535 15489
L31534 15407
" />
<path d="M31534 15407
L31533 15326
" />
<path d="M31533 15326
L31532 15245
" />
<path d="M31532 15245
L31531 15164
" />
<path d="M31531 15164
L31530 15085
" />
<path d="M31530 15085
L31528 15007
" />
<path d="M31528 15007
L31528 14995
" />
<path d="M31551 20489
L31551 20408
" />
<path d="M31551 20408
L31551 20320
" />
<path d="M31551 20320
L31551 20224
" />
<path d="M31551 20224
L31551 20141
" />
<path d="M31551 20141
L31550 20059
" />
<path d="M31550 20059
L31550 19965
" />
<path d="M31550 19965
L31550 19871
" />
<path d="M31550 19871
L31550 19786
" />
<path d="M31550 19786
L31550 19698
" />
<path d="M31550 19698
L31550 19618
" />
<path d="M31550 19618
L31550 19538
" />
<path d="M31550 19538
L31550 19444
" />
<path d="M31550 19444
L31550 19360
" />
<path d="M31550 19360
L31549 19266
" />
<path d="M31549 19266
L31549 19186
" />
<path d="M31549 19186
L31549 19108
" />
<path d="M31549 19108
L31549 19028
" />
<path d="M31549 19028
L31549 18941
" />
<path d="M31549 18941
L31549 18859
" />
<path d="M31549 18859
L31549 18774
" />
<path d="M31549 18774
L31548 18690
" />
<path d="M31548 18690
L31548 18603
" />
<path d="M31548 18603
L31548 18516
" />
<path d="M31548 18516
L31548 18413
" />
<path d="M31548 18413
L31548 18332
" />
<path d="M31548 18332
L31547 18252
" />
<path d="M31547 18252
L31547 18170
" />
<path d="M31547 18170
L31547 18086
" />
<path d="M31547 18086
L31547 17988
" />
<path d="M31547 17988
L31547 17909
" />
<path d="M31547 17909
L31546 17809
" />
<path d="M31546 17809
L31546 17731
" />
<path d="M31546 17731
L31546 17650
" />
<path d="M31546 17650
L31546 17561
" />
<path d="M31546 17561
L31545 17476
" />
<path d="M31545 17476
L31545 17392
" />
<path d="M31545 17392
L31545 17313
" />
<path d="M31545 17313
L31545 17234
" />
<path d="M31545 17234
L31544 17144
" />
<path d="M31544 17144
L31544 17046
" />
<path d="M31544 17046
L31544 16968
" />
<path d="M31552 25083
L31552 24966
" />
<path d="M31552 24966
L31552 24812
" />
<path d="M31552 24812
L31552 24658
" />
<path d="M31552 24658
L31552 24504
" />
<path d="M31552 24504
L31552 24352
" />
<path d="M31552 24352
L31552 24200
" />
<path d="M31552 24200
L31552 24048
" />
<path d="M31552 24048
L31552 23897
" />
<path d="M31552 23897
L31552 23747
" />
<path d="M31552 23747
L31552 23633
" />
<path d="M31552 23633
L31552 23551
" />
<path d="M31552 23551
L31552 23466
" />
<path d="M31552 23466
L31552 23366
" />
<path d="M31552 23366
L31552 23283
" />
<path d="M31552 23283
L31552 23182
" />
<path d="M31552 23182
L31552 23090
" />
<path d="M31552 23090
L31552 22990
" />
<path d="M31552 22990
L31552 22880
" />
<path d="M31552 22880
L31552 22799
" />
<path d="M31552 22799
L31552 22713
" />
<path d="M31552 22713
L31552 22623
" />
<path d="M31552 22623
L31552 22540
" />
<path d="M31552 22540
L31552 22448
" />
<path d="M31552 22448
L31552 22350
" />
<path d="M31552 22350
L31552 22270
" />
<path d="M31552 22270
L31552 22191
" />
<path d="M31552 22191
L31552 22094
" />
<path d="M31552 22094
L31552 22015
" />
<path d="M31552 22015
L31552 21919
" />
<path d="M31552 21919
L31552 21827
" />
<path d="M31552 21827
L31552 21745
" />
<path d="M31552 21745
L31552 21665
" />
<path d="M31552 21665
L31552 21581
" />
<path d="M31552 21581
L31552 21495
" />
<path d="M31552 21495
L31552 21402
" />
<path d="M31552 21402
L31552 21300
" />
<path d="M31552 21300
L31551 21207
" />
<path d="M31551 21207
L31551 21123
" />
<path d="M31551 21123
L31551 21042
" />
<path d="M31551 21042
L31551 20962
" />
<path d="M31551 20962
L31551 20865
" />
<path d="M31551 20865
L31551 20766
" />
<path d="M31551 20766
L31551 20681
" />
<path d="M31551 20681
L31551 20602
" />
<path d="M31551 20602
L31551 20513
" />
<path d="M31551 20513
L31551 20489
" />
<path d="M31549 30273
L31549 30148
" />
<path d="M31549 30148
L31549 30065
" />
<path d="M31549 30065
L31549 29982
" />
<path d="M31549 29982
L31549 29899
" />
<path d="M31549 29899
L31549 29816
" />
<path d="M31549 29816
L31549 29733
" />
<path d="M31549 29733
L31549 29650
" />
<path d="M31549 29650
L31549 29567
" />
<path d="M31549 29567
L31549 29484
" />
<path d="M31549 29484
L31550 29401
" />
<path d="M31550 29401
L31550 29318
" />
<path d="M31550 29318
L31550 29235
" />
<path d="M31550 29235
L31550 29152
" />
<path d="M31550 29152
L31550 29070
" />
<path d="M31550 29070
L31550 28987
" />
<path d="M31550 28987
L31550 28905
" />
<path d="M31550 28905
L31550 28822
" />
<path d="M31550 28822
L31550 28740
" />
<path d="M31550 28740
L31550 28657
" />
<path d="M31550 28657
L31550 28575
" />
<path d="M31550 28575
L31550 28493
" />
<path d="M31550 28493
L31550 28410
" />
<path d="M31550 28410
L31550 28328
" />
<path d="M31550 28328
L31550 28246
" />
<path d="M31550 28246
L31551 28164
" />
<path d="M31551 28164
L31551 28082
" />
<path d="M31551 28082
L31551 28000
" />
<path d="M31551 28000
L31551 27919
" />
<path d="M31551 27919
L31551 27837
" />
<path d="M31551 27837
L31551 27755
" />
<path d="M31551 27755
L31551 27674
" />
<path d="M31551 27674
L31551 27593
" />
<path d="M31551 27593
L31551 27511
" />
<path d="M31551 27511
L31551 27430
" />
<path d="M31551 27430
L31551 27349
" />
<path d="M31551 27349
L31551 27268
" />
<path d="M31551 27268
L31551 27187
" />
<path d="M31551 27187
L31551 27106
" />
<path d="M31551 27106
L31551 27025
" />
<path d="M31551 27025
L31551 26945
" />
<path d="M31551 26945
L31551 26864
" />
<path d="M31551 26864
L31551 26784
" />
<path d="M31551 26784
L31551 26703
" />
<path d="M31551 26703
L31551 26623
" />
<path d="M31551 26623
L31551 26543
" />
<path d="M31551 26543
L31552 26463
" />
<path d="M31552 26463
L31552 26383
" />
<path d="M31552 26383
L31552 26303
" />
<path d="M31552 26303
L31552 26224
" />
<path d="M31552 26224
L31552 26144
" />
<path d="M31552 26144
L31552 26065
" />
<path d="M31552 26065
L31552 25985
" />
<path d="M31552 25985
L31552 25906
" />
<path d="M31552 25906
L31552 25827
" />
<path d="M31552 25827
L31552 25748
" />
<path d="M31552 25748
L31552 25669
" />
<path d="M31552 25669
L31552 25512
" />
<path d="M31552 25512
L31552 25356
" />
<path d="M31552 25356
L31552 25199
" />
<path d="M31552 25199
L31552 25083
" />
<path d="M31543 35585
L31543 35462
" />
<path d="M31543 35462
L31543 35360
" />
<path d="M31543 35360
L31543 35217
" />
<path d="M31543 35217
L31544 35115
" />
<path d="M31544 35115
L31544 35012
" />
<path d="M31544 35012
L31544 34889
" />
<path d="M31544 34889
L31544 34797
" />
<path d="M31544 34797
L31544 34663
" />
<path d="M31544 34663
L31544 34519
" />
<path d="M31544 34519
L31544 34395
" />
<path d="M31544 34395
L31545 34292
" />
<path d="M31545 34292
L31545 34168
" />
<path d="M31545 34168
L31545 34065
" />
<path d="M31545 34065
L31545 33977
" />
<path d="M31545 33977
L31545 33879
" />
<path d="M31545 33879
L31545 33796
" />
<path d="M31545 33796
L31545 33682
" />
<path d="M31545 33682
L31545 33567
" />
<path d="M31545 33567
L31545 33474
" />
<path d="M31545 33474
L31546 33381
" />
<path d="M31546 33381
L31546 33235
" />
<path d="M31546 33235
L31546 33152
" />
<path d="M31546 33152
L31546 33066
" />
<path d="M31546 33066
L31546 32985
" />
<path d="M31546 32985
L31546 32881
" />
<path d="M31546 32881
L31546 32735
" />
<path d="M31546 32735
L31546 32652
" />
<path d="M31546 32652
L31547 32569
" />
<path d="M31547 32569
L31547 32475
" />
<path d="M31547 32475
L31547 32381
" />
<path d="M31547 32381
L31547 32256
" />
<path d="M31547 32256
L31547 32172
" />
<path d="M31547 32172
L31547 32068
" />
<path d="M31547 32068
L31547 31984
" />
<path d="M31547 31984
L31547 31901
" />
<path d="M31547 31901
L31547 31796
" />
<path d="M31547 31796
L31547 31713
" />
<path d="M31547 31713
L31547 31629
" />
<path d="M31547 31629
L31548 31525
" />
<path d="M31548 31525
L31548 31400
" />
<path d="M31548 31400
L31548 31316
" />
<path d="M31548 31316
L31548 31233
" />
<path d="M31548 31233
L31548 31149
" />
<path d="M31548 31149
L31548 31024
" />
<path d="M31548 31024
L31548 30899
" />
<path d="M31548 30899
L31548 30815
" />
<path d="M31548 30815
L31548 30732
" />
<path d="M31548 30732
L31548 30648
" />
<path d="M31548 30648
L31549 30565
" />
<path d="M31549 30565
L31549 30482
" />
<path d="M31549 30482
L31549 30398
" />
<path d="M31549 30398
L31549 30315
" />
<path d="M31549 30315
L31549 30273
" />
<path d="M31536 40541
L31537 40396
" />
<path d="M31537 40396
L31537 40104
" />
<path d="M31537 40104
L31537 39883
" />
<path d="M31537 39883
L31537 39735
" />
<path d="M31537 39735
L31538 39511
" />
<path d="M31538 39511
L31538 39286
" />
<path d="M31538 39286
L31538 39135
" />
<path d="M31538 39135
L31539 38983
" />
<path d="M31539 38983
L31539 38830
" />
<path d="M31539 38830
L31539 38677
" />
<path d="M31539 38677
L31539 38524
" />
<path d="M31539 38524
L31539 38369
" />
<path d="M31539 38369
L31540 38214
" />
<path d="M31540 38214
L31540 38059
" />
<path d="M31540 38059
L31540 37903
" />
<path d="M31540 37903
L31540 37746
" />
<path d="M31540 37746
L31540 37589
" />
<path d="M31540 37589
L31541 37431
" />
<path d="M31541 37431
L31541 37313
" />
<path d="M31541 37313
L31541 37224
" />
<path d="M31541 37224
L31541 37115
" />
<path d="M31541 37115
L31541 36995
" />
<path d="M31541 36995
L31541 36905
" />
<path d="M31541 36905
L31541 36796
" />
<path d="M31541 36796
L31542 36708
" />
<path d="M31542 36708
L31542 36595
" />
<path d="M31542 36595
L31542 36475
" />
<path d="M31542 36475
L31542 36314
" />
<path d="M31542 36314
L31542 36153
" />
<path d="M31542 36153
L31542 35991
" />
<path d="M31542 35991
L31543 35829
" />
<path d="M31543 35829
L31543 35666
" />
<path d="M31543 35666
L31543 35585
" />
<path d="M31531 44665
L31531 44525
" />
<path d="M31531 44525
L31531 44384
" />
<path d="M31531 44384
L31531 44298
" />
<path d="M31531 44298
L31532 44153
" />
<path d="M31532 44153
L31532 44036
" />
<path d="M31532 44036
L31532 43947
" />
<path d="M31532 43947
L31532 43798
" />
<path d="M31532 43798
L31532 43677
" />
<path d="M31532 43677
L31532 43556
" />
<path d="M31532 43556
L31532 43433
" />
<path d="M31532 43433
L31533 43308
" />
<path d="M31533 43308
L31533 43183
" />
<path d="M31533 43183
L31533 43057
" />
<path d="M31533 43057
L31533 42930
" />
<path d="M31533 42930
L31533 42801
" />
<path d="M31533 42801
L31533 42672
" />
<path d="M31533 42672
L31534 42541
" />
<path d="M31534 42541
L31534 42409
" />
<path d="M31534 42409
L31534 42277
" />
<path d="M31534 42277
L31534 42076
" />
<path d="M31534 42076
L31535 41805
" />
<path d="M31535 41805
L31535 41530
" />
<path d="M31535 41530
L31535 41252
" />
<path d="M31535 41252
L31536 40828
" />
<path d="M31536 40828
L31536 40541
" />
<path d="M31528 47482
L31528 47402
" />
<path d="M31528 47402
L31528 47303
" />
<path d="M31528 47303
L31528 47200
" />
<path d="M31528 47200
L31528 47093
" />
<path d="M31528 47093
L31528 46983
" />
<path d="M31528 46983
L31529 46869
" />
<path d="M31529 46869
L31529 46751
" />
<path d="M31529 46751
L31529 46670
" />
<path d="M31529 46670
L31529 46588
" />
<path d="M31529 46588
L31529 46505
" />
<path d="M31529 46505
L31529 46419
" />
<path d="M31529 46419
L31529 46333
" />
<path d="M31529 46333
L31529 46244
" />
<path d="M31529 46244
L31529 46155
" />
<path d="M31529 46155
L31529 46063
" />
<path d="M31529 46063
L31529 45971
" />
<path d="M31529 45971
L31529 45876
" />
<path d="M31529 45876
L31530 45781
" />
<path d="M31530 45781
L31530 45684
" />
<path d="M31530 45684
L31530 45585
" />
<path d="M31530 45585
L31530 45485
" />
<path d="M31530 45485
L31530 45358
" />
<path d="M31530 45358
L31530 45229
" />
<path d="M31530 45229
L31530 45125
" />
<path d="M31530 45125
L31530 45019
" />
<path d="M31530 45019
L31531 44938
" />
<path d="M31531 44938
L31531 44857
" />
<path d="M31531 44857
L31531 44748
" />
<path d="M31531 44748
L31531 44665
" />
<path d="M31617 48599
L31605 48532
" />
<path d="M31605 48532
L31595 48462
" />
<path d="M31595 48462
L31585 48393
" />
<path d="M31585 48393
L31576 48321
" />
<path d="M31576 48321
L31567 48250
" />
<path d="M31567 48250
L31560 48177
" />
<path d="M31560 48177
L31553 48103
" />
<path d="M31553 48103
L31547 48031
" />
<path d="M31547 48031
L31542 47956
" />
<path d="M31542 47956
L31538 47880
" />
<path d="M31538 47880
L31535 47804
" />
<path d="M31535 47804
L31532 47728
" />
<path d="M31532 47728
L31530 47649
" />
<path d="M31530 47649
L31529 47571
" />
<path d="M31529 47571
L31528 47492
" />
<path d="M31528 47492
L31528 47482
" />
<path d="M31873 49484
L31850 49428
" />
<path d="M31850 49428
L31827 49370
" />
<path d="M31827 49370
L31805 49313
" />
<path d="M31805 49313
L31784 49254
" />
<path d="M31784 49254
L31764 49195
" />
<path d="M31764 49195
L31745 49135
" />
<path d="M31745 49135
L31726 49073
" />
<path d="M31726 49073
L31709 49011
" />
<path d="M31709 49011
L31692 48947
" />
<path d="M31692 48947
L31676 48883
" />
<path d="M31676 48883
L31661 48819
" />
<path d="M31661 48819
L31647 48754
" />
<path d="M31647 48754
L31633 48687
" />
<path d="M31633 48687
L31620 48620
" />
<path d="M31620 48620
L31617 48599
" />
<path d="M32282 50160
L32246 50116
" />
<path d="M32246 50116
L32212 50072
" />
<path d="M32212 50072
L32178 50026
" />
<path d="M32178 50026
L32145 49979
" />
<path d="M32145 49979
L32113 49932
" />
<path d="M32113 49932
L32082 49883
" />
<path d="M32082 49883
L32052 49834
" />
<path d="M32052 49834
L32022 49783
" />
<path d="M32022 49783
L31994 49732
" />
<path d="M31994 49732
L31966 49680
" />
<path d="M31966 49680
L31939 49626
" />
<path d="M31939 49626
L31913 49572
" />
<path d="M31913 49572
L31888 49517
" />
<path d="M31888 49517
L31873 49484
" />
<path d="M32826 50656
L32780 50623
" />
<path d="M32780 50623
L32733 50589
" />
<path d="M32733 50589
L32688 50555
" />
<path d="M32688 50555
L32643 50519
" />
<path d="M32643 50519
L32600 50483
" />
<path d="M32600 50483
L32558 50447
" />
<path d="M32558 50447
L32514 50407
" />
<path d="M32514 50407
L32472 50367
" />
<path d="M32472 50367
L32432 50328
" />
<path d="M32432 50328
L32393 50287
" />
<path d="M32393 50287
L32355 50245
" />
<path d="M32355 50245
L32318 50203
" />
<path d="M32318 50203
L32282 50160
" />
<path d="M33492 50996
L33435 50974
" />
<path d="M33435 50974
L33379 50951
" />
<path d="M33379 50951
L33321 50926
" />
<path d="M33321 50926
L33266 50902
" />
<path d="M33266 50902
L33207 50874
" />
<path d="M33207 50874
L33154 50848
" />
<path d="M33154 50848
L33101 50820
" />
<path d="M33101 50820
L33050 50793
" />
<path d="M33050 50793
L32999 50764
" />
<path d="M32999 50764
L32950 50735
" />
<path d="M32950 50735
L32899 50703
" />
<path d="M32899 50703
L32848 50670
" />
<path d="M32848 50670
L32826 50656
" />
<path d="M34263 51206
L34197 51193
" />
<path d="M34197 51193
L34131 51180
" />
<path d="M34131 51180
L34065 51165
" />
<path d="M34065 51165
L34000 51150
" />
<path d="M34000 51150
L33936 51134
" />
<path d="M33936 51134
L33872 51117
" />
<path d="M33872 51117
L33809 51100
" />
<path d="M33809 51100
L33748 51082
" />
<path d="M33748 51082
L33688 51063
" />
<path d="M33688 51063
L33628 51044
" />
<path d="M33628 51044
L33569 51024
" />
<path d="M33569 51024
L33510 51002
" />
<path d="M33510 51002
L33492 50996
" />
<path d="M35124 51314
L35050 51308
" />
<path d="M35050 51308
L34977 51302
" />
<path d="M34977 51302
L34903 51295
" />
<path d="M34903 51295
L34829 51288
" />
<path d="M34829 51288
L34757 51280
" />
<path d="M34757 51280
L34686 51272
" />
<path d="M34686 51272
L34614 51262
" />
<path d="M34614 51262
L34544 51253
" />
<path d="M34544 51253
L34468 51241
" />
<path d="M34468 51241
L34399 51230
" />
<path d="M34399 51230
L34331 51219
" />
<path d="M34331 51219
L34263 51206
" />
<path d="M36058 51344
L35979 51343
" />
<path d="M35979 51343
L35899 51343
" />
<path d="M35899 51343
L35817 51342
" />
<path d="M35817 51342
L35739 51341
" />
<path d="M35739 51341
L35661 51339
" />
<path d="M35661 51339
L35584 51337
" />
<path d="M35584 51337
L35507 51334
" />
<path d="M35507 51334
L35431 51331
" />
<path d="M35431 51331
L35354 51327
" />
<path d="M35354 51327
L35274 51323
" />
<path d="M35274 51323
L35198 51319
" />
<path d="M35198 51319
L35124 51314
" />
<path d="M37771 51344
L36058 51344
" />
<path d="M39949 51344
L37771 51344
" />
<path d="M42467 51344
L39949 51344
" />
<path d="M45200 51344
L42467 51344
" />
<path d="M48024 51344
L45200 51344
" />
<path d="M50813 51344
L48024 51344
" />
<path d="M53444 51344
L50813 51344
" />
<path d="M55791 51344
L53444 51344
" />
<path d="M57485 51429
L57412 51422
" />
<path d="M57412 51422
L57340 51415
" />
<path d="M57340 51415
L57261 51408
" />
<path d="M57261 51408
L57188 51402
" />
<path d="M57188 51402
L57110 51396
" />
<path d="M57110 51396
L57035 51390
" />
<path d="M57035 51390
L56959 51384
" />
<path d="M56959 51384
L56881 51379
" />
<path d="M56881 51379
L56804 51374
" />
<path d="M56804 51374
L56728 51370
" />
<path d="M56728 51370
L56652 51366
" />
<path d="M56652 51366
L56576 51362
" />
<path d="M56576 51362
L56497 51359
" />
<path d="M56497 51359
L56414 51355
" />
<path d="M56414 51355
L56337 51353
" />
<path d="M56337 51353
L56261 51350
" />
<path d="M56261 51350
L56181 51348
" />
<path d="M56181 51348
L56101 51346
" />
<path d="M56101 51346
L56014 51345
" />
<path d="M56014 51345
L55920 51344
" />
<path d="M55920 51344
L55833 51344
" />
<path d="M55833 51344
L55791 51344
" />
<path d="M59130 51671
L59062 51658
" />
<path d="M59062 51658
L58986 51643
" />
<path d="M58986 51643
L58919 51631
" />
<path d="M58919 51631
L58849 51619
" />
<path d="M58849 51619
L58779 51606
" />
<path d="M58779 51606
L58707 51594
" />
<path d="M58707 51594
L58638 51583
" />
<path d="M58638 51583
L58565 51571
" />
<path d="M58565 51571
L58496 51560
" />
<path d="M58496 51560
L58424 51549
" />
<path d="M58424 51549
L58351 51537
" />
<path d="M58351 51537
L58264 51525
" />
<path d="M58264 51525
L58193 51514
" />
<path d="M58193 51514
L58122 51505
" />
<path d="M58122 51505
L58052 51495
" />
<path d="M58052 51495
L57981 51486
" />
<path d="M57981 51486
L57902 51476
" />
<path d="M57902 51476
L57831 51467
" />
<path d="M57831 51467
L57760 51459
" />
<path d="M57760 51459
L57684 51450
" />
<path d="M57684 51450
L57610 51442
" />
<path d="M57610 51442
L57538 51435
" />
<path d="M57538 51435
L57485 51429
" />
<path d="M60729 52045
L60664 52027
" />
<path d="M60664 52027
L60596 52009
" />
<path d="M60596 52009
L60534 51992
" />
<path d="M60534 51992
L60468 51975
" />
<path d="M60468 51975
L60405 51958
" />
<path d="M60405 51958
L60338 51941
" />
<path d="M60338 51941
L60273 51925
" />
<path d="M60273 51925
L60208 51908
" />
<path d="M60208 51908
L60142 51892
" />
<path d="M60142 51892
L60071 51875
" />
<path d="M60071 51875
L60005 51859
" />
<path d="M60005 51859
L59941 51844
" />
<path d="M59941 51844
L59875 51828
" />
<path d="M59875 51828
L59809 51813
" />
<path d="M59809 51813
L59744 51799
" />
<path d="M59744 51799
L59676 51783
" />
<path d="M59676 51783
L59611 51769
" />
<path d="M59611 51769
L59544 51755
" />
<path d="M59544 51755
L59476 51740
" />
<path d="M59476 51740
L59411 51727
" />
<path d="M59411 51727
L59344 51713
" />
<path d="M59344 51713
L59273 51698
" />
<path d="M59273 51698
L59205 51685
" />
<path d="M59205 51685
L59130 51671
" />
<path d="M62281 52528
L62217 52506
" />
<path d="M62217 52506
L62157 52486
" />
<path d="M62157 52486
L62093 52464
" />
<path d="M62093 52464
L62032 52443
" />
<path d="M62032 52443
L61971 52423
" />
<path d="M61971 52423
L61905 52401
" />
<path d="M61905 52401
L61844 52381
" />
<path d="M61844 52381
L61780 52360
" />
<path d="M61780 52360
L61719 52340
" />
<path d="M61719 52340
L61653 52319
" />
<path d="M61653 52319
L61590 52299
" />
<path d="M61590 52299
L61529 52280
" />
<path d="M61529 52280
L61462 52259
" />
<path d="M61462 52259
L61397 52239
" />
<path d="M61397 52239
L61336 52220
" />
<path d="M61336 52220
L61275 52202
" />
<path d="M61275 52202
L61214 52184
" />
<path d="M61214 52184
L61145 52163
" />
<path d="M61145 52163
L61081 52145
" />
<path d="M61081 52145
L61018 52126
" />
<path d="M61018 52126
L60957 52109
" />
<path d="M60957 52109
L60893 52090
" />
<path d="M60893 52090
L60829 52073
" />
<path d="M60829 52073
L60767 52055
" />
<path d="M60767 52055
L60729 52045
" />
<path d="M63790 53098
L63733 53075
" />
<path d="M63733 53075
L63675 53052
" />
<path d="M63675 53052
L63618 53029
" />
<path d="M63618 53029
L63561 53006
" />
<path d="M63561 53006
L63503 52983
" />
<path d="M63503 52983
L63441 52959
" />
<path d="M63441 52959
L63379 52934
" />
<path d="M63379 52934
L63320 52911
" />
<path d="M63320 52911
L63261 52888
" />
<path d="M63261 52888
L63204 52866
" />
<path d="M63204 52866
L63144 52843
" />
<path d="M63144 52843
L63085 52821
" />
<path d="M63085 52821
L63028 52799
" />
<path d="M63028 52799
L62967 52776
" />
<path d="M62967 52776
L62904 52752
" />
<path d="M62904 52752
L62845 52731
" />
<path d="M62845 52731
L62778 52706
" />
<path d="M62778 52706
L62719 52684
" />
<path d="M62719 52684
L62660 52663
" />
<path d="M62660 52663
L62599 52641
" />
<path d="M62599 52641
L62540 52619
" />
<path d="M62540 52619
L62476 52597
" />
<path d="M62476 52597
L62417 52576
" />
<path d="M62417 52576
L62357 52555
" />
<path d="M62357 52555
L62296 52534
" />
<path d="M62296 52534
L62281 52528
" />
<path d="M65256 53732
L65197 53705
" />
<path d="M65197 53705
L65141 53679
" />
<path d="M65141 53679
L65072 53648
" />
<path d="M65072 53648
L65017 53624
" />
<path d="M65017 53624
L64959 53598
" />
<path d="M64959 53598
L64902 53573
" />
<path d="M64902 53573
L64845 53547
" />
<path d="M64845 53547
L64788 53522
" />
<path d="M64788 53522
L64731 53497
" />
<path d="M64731 53497
L64669 53470
" />
<path d="M64669 53470
L64611 53445
" />
<path d="M64611 53445
L64548 53417
" />
<path d="M64548 53417
L64491 53393
" />
<path d="M64491 53393
L64434 53368
" />
<path d="M64434 53368
L64376 53343
" />
<path d="M64376 53343
L64319 53319
" />
<path d="M64319 53319
L64261 53294
" />
<path d="M64261 53294
L64204 53270
" />
<path d="M64204 53270
L64145 53245
" />
<path d="M64145 53245
L64088 53222
" />
<path d="M64088 53222
L64031 53197
" />
<path d="M64031 53197
L63975 53174
" />
<path d="M63975 53174
L63919 53151
" />
<path d="M63919 53151
L63863 53128
" />
<path d="M63863 53128
L63806 53105
" />
<path d="M63806 53105
L63790 53098
" />
<path d="M66682 54406
L66625 54377
" />
<path d="M66625 54377
L66571 54352
" />
<path d="M66571 54352
L66514 54324
" />
<path d="M66514 54324
L66459 54297
" />
<path d="M66459 54297
L66404 54271
" />
<path d="M66404 54271
L66338 54239
" />
<path d="M66338 54239
L66284 54213
" />
<path d="M66284 54213
L66230 54187
" />
<path d="M66230 54187
L66176 54161
" />
<path d="M66176 54161
L66120 54135
" />
<path d="M66120 54135
L66066 54109
" />
<path d="M66066 54109
L66010 54082
" />
<path d="M66010 54082
L65955 54056
" />
<path d="M65955 54056
L65895 54028
" />
<path d="M65895 54028
L65838 54001
" />
<path d="M65838 54001
L65782 53975
" />
<path d="M65782 53975
L65726 53948
" />
<path d="M65726 53948
L65669 53922
" />
<path d="M65669 53922
L65614 53896
" />
<path d="M65614 53896
L65558 53870
" />
<path d="M65558 53870
L65502 53844
" />
<path d="M65502 53844
L65445 53818
" />
<path d="M65445 53818
L65389 53792
" />
<path d="M65389 53792
L65333 53767
" />
<path d="M65333 53767
L65278 53742
" />
<path d="M65278 53742
L65256 53732
" />
<path d="M68069 55096
L68010 55067
" />
<path d="M68010 55067
L67957 55040
" />
<path d="M67957 55040
L67903 55013
" />
<path d="M67903 55013
L67849 54986
" />
<path d="M67849 54986
L67796 54959
" />
<path d="M67796 54959
L67742 54931
" />
<path d="M67742 54931
L67688 54904
" />
<path d="M67688 54904
L67634 54877
" />
<path d="M67634 54877
L67580 54850
" />
<path d="M67580 54850
L67526 54823
" />
<path d="M67526 54823
L67471 54796
" />
<path d="M67471 54796
L67418 54769
" />
<path d="M67418 54769
L67360 54740
" />
<path d="M67360 54740
L67299 54710
" />
<path d="M67299 54710
L67243 54682
" />
<path d="M67243 54682
L67189 54655
" />
<path d="M67189 54655
L67136 54629
" />
<path d="M67136 54629
L67082 54602
" />
<path d="M67082 54602
L67027 54575
" />
<path d="M67027 54575
L66972 54548
" />
<path d="M66972 54548
L66918 54521
" />
<path d="M66918 54521
L66863 54494
" />
<path d="M66863 54494
L66808 54467
" />
<path d="M66808 54467
L66749 54438
" />
<path d="M66749 54438
L66695 54412
" />
<path d="M66695 54412
L66682 54406
" />
<path d="M69296 55749
L69240 55718
" />
<path d="M69240 55718
L69188 55690
" />
<path d="M69188 55690
L69136 55661
" />
<path d="M69136 55661
L69082 55632
" />
<path d="M69082 55632
L69029 55603
" />
<path d="M69029 55603
L68974 55573
" />
<path d="M68974 55573
L68922 55545
" />
<path d="M68922 55545
L68868 55516
" />
<path d="M68868 55516
L68815 55487
" />
<path d="M68815 55487
L68759 55457
" />
<path d="M68759 55457
L68705 55428
" />
<path d="M68705 55428
L68652 55400
" />
<path d="M68652 55400
L68599 55372
" />
<path d="M68599 55372
L68547 55344
" />
<path d="M68547 55344
L68491 55315
" />
<path d="M68491 55315
L68436 55285
" />
<path d="M68436 55285
L68381 55257
" />
<path d="M68381 55257
L68327 55229
" />
<path d="M68327 55229
L68273 55201
" />
<path d="M68273 55201
L68221 55174
" />
<path d="M68221 55174
L68164 55145
" />
<path d="M68164 55145
L68112 55118
" />
<path d="M68112 55118
L68069 55096
" />
<path d="M70780 56585
L70728 56555
" />
<path d="M70728 56555
L70672 56524
" />
<path d="M70672 56524
L70614 56490
" />
<path d="M70614 56490
L70562 56461
" />
<path d="M70562 56461
L70507 56429
" />
<path d="M70507 56429
L70453 56398
" />
<path d="M70453 56398
L70399 56367
" />
<path d="M70399 56367
L70345 56337
" />
<path d="M70345 56337
L70288 56304
" />
<path d="M70288 56304
L70237 56276
" />
<path d="M70237 56276
L70184 56245
" />
<path d="M70184 56245
L70125 56212
" />
<path d="M70125 56212
L70067 56179
" />
<path d="M70067 56179
L70014 56149
" />
<path d="M70014 56149
L69962 56120
" />
<path d="M69962 56120
L69910 56091
" />
<path d="M69910 56091
L69858 56062
" />
<path d="M69858 56062
L69807 56033
" />
<path d="M69807 56033
L69754 56003
" />
<path d="M69754 56003
L69701 55973
" />
<path d="M69701 55973
L69649 55944
" />
<path d="M69649 55944
L69597 55916
" />
<path d="M69597 55916
L69543 55886
" />
<path d="M69543 55886
L69490 55856
" />
<path d="M69490 55856
L69438 55827
" />
<path d="M69438 55827
L69385 55798
" />
<path d="M69385 55798
L69331 55768
" />
<path d="M69331 55768
L69296 55749
" />
<path d="M72436 57549
L72376 57513
" />
<path d="M72376 57513
L72322 57482
" />
<path d="M72322 57482
L72272 57452
" />
<path d="M72272 57452
L72216 57419
" />
<path d="M72216 57419
L72166 57390
" />
<path d="M72166 57390
L72110 57357
" />
<path d="M72110 57357
L72054 57324
" />
<path d="M72054 57324
L71994 57289
" />
<path d="M71994 57289
L71942 57259
" />
<path d="M71942 57259
L71889 57228
" />
<path d="M71889 57228
L71836 57197
" />
<path d="M71836 57197
L71781 57165
" />
<path d="M71781 57165
L71725 57132
" />
<path d="M71725 57132
L71667 57098
" />
<path d="M71667 57098
L71615 57068
" />
<path d="M71615 57068
L71560 57036
" />
<path d="M71560 57036
L71508 57006
" />
<path d="M71508 57006
L71458 56977
" />
<path d="M71458 56977
L71405 56946
" />
<path d="M71405 56946
L71350 56915
" />
<path d="M71350 56915
L71299 56885
" />
<path d="M71299 56885
L71248 56855
" />
<path d="M71248 56855
L71196 56825
" />
<path d="M71196 56825
L71137 56791
" />
<path d="M71137 56791
L71083 56760
" />
<path d="M71083 56760
L71033 56731
" />
<path d="M71033 56731
L70983 56702
" />
<path d="M70983 56702
L70933 56673
" />
<path d="M70933 56673
L70876 56641
" />
<path d="M70876 56641
L70820 56609
" />
<path d="M70820 56609
L70780 56585
" />
<path d="M74177 58580
L74115 58543
" />
<path d="M74115 58543
L74061 58510
" />
<path d="M74061 58510
L74006 58478
" />
<path d="M74006 58478
L73951 58445
" />
<path d="M73951 58445
L73896 58412
" />
<path d="M73896 58412
L73841 58380
" />
<path d="M73841 58380
L73786 58347
" />
<path d="M73786 58347
L73735 58317
" />
<path d="M73735 58317
L73677 58282
" />
<path d="M73677 58282
L73622 58250
" />
<path d="M73622 58250
L73568 58217
" />
<path d="M73568 58217
L73513 58185
" />
<path d="M73513 58185
L73458 58152
" />
<path d="M73458 58152
L73404 58120
" />
<path d="M73404 58120
L73349 58087
" />
<path d="M73349 58087
L73294 58055
" />
<path d="M73294 58055
L73243 58025
" />
<path d="M73243 58025
L73186 57991
" />
<path d="M73186 57991
L73135 57960
" />
<path d="M73135 57960
L73080 57928
" />
<path d="M73080 57928
L73026 57896
" />
<path d="M73026 57896
L72968 57862
" />
<path d="M72968 57862
L72917 57832
" />
<path d="M72917 57832
L72860 57798
" />
<path d="M72860 57798
L72806 57766
" />
<path d="M72806 57766
L72752 57734
" />
<path d="M72752 57734
L72701 57705
" />
<path d="M72701 57705
L72644 57671
" />
<path d="M72644 57671
L72590 57639
" />
<path d="M72590 57639
L72536 57608
" />
<path d="M72536 57608
L72483 57576
" />
<path d="M72483 57576
L72436 57549
" />
<path d="M75918 59621
L75857 59585
" />
<path d="M75857 59585
L75804 59552
" />
<path d="M75804 59552
L75743 59516
" />
<path d="M75743 59516
L75690 59484
" />
<path d="M75690 59484
L75636 59452
" />
<path d="M75636 59452
L75582 59419
" />
<path d="M75582 59419
L75528 59387
" />
<path d="M75528 59387
L75477 59357
" />
<path d="M75477 59357
L75420 59322
" />
<path d="M75420 59322
L75359 59286
" />
<path d="M75359 59286
L75304 59253
" />
<path d="M75304 59253
L75237 59213
" />
<path d="M75237 59213
L75175 59176
" />
<path d="M75175 59176
L75121 59143
" />
<path d="M75121 59143
L75060 59107
" />
<path d="M75060 59107
L74985 59062
" />
<path d="M74985 59062
L74896 59009
" />
<path d="M74896 59009
L74841 58976
" />
<path d="M74841 58976
L74790 58945
" />
<path d="M74790 58945
L74735 58913
" />
<path d="M74735 58913
L74677 58878
" />
<path d="M74677 58878
L74623 58845
" />
<path d="M74623 58845
L74568 58813
" />
<path d="M74568 58813
L74513 58780
" />
<path d="M74513 58780
L74448 58741
" />
<path d="M74448 58741
L74390 58706
" />
<path d="M74390 58706
L74335 58674
" />
<path d="M74335 58674
L74280 58641
" />
<path d="M74280 58641
L74223 58607
" />
<path d="M74223 58607
L74177 58580
" />
<path d="M77571 60614
L77509 60577
" />
<path d="M77509 60577
L77460 60547
" />
<path d="M77460 60547
L77397 60509
" />
<path d="M77397 60509
L77347 60479
" />
<path d="M77347 60479
L77284 60442
" />
<path d="M77284 60442
L77196 60388
" />
<path d="M77196 60388
L77133 60350
" />
<path d="M77133 60350
L77018 60282
" />
<path d="M77018 60282
L76915 60220
" />
<path d="M76915 60220
L76812 60158
" />
<path d="M76812 60158
L76735 60111
" />
<path d="M76735 60111
L76683 60080
" />
<path d="M76683 60080
L76618 60041
" />
<path d="M76618 60041
L76539 59994
" />
<path d="M76539 59994
L76487 59963
" />
<path d="M76487 59963
L76428 59927
" />
<path d="M76428 59927
L76369 59892
" />
<path d="M76369 59892
L76303 59852
" />
<path d="M76303 59852
L76250 59820
" />
<path d="M76250 59820
L76197 59789
" />
<path d="M76197 59789
L76141 59755
" />
<path d="M76141 59755
L76091 59725
" />
<path d="M76091 59725
L76038 59693
" />
<path d="M76038 59693
L75984 59661
" />
<path d="M75984 59661
L75931 59629
" />
<path d="M75931 59629
L75918 59621
" />
<path d="M79052 61501
L78993 61465
" />
<path d="M78993 61465
L78939 61433
" />
<path d="M78939 61433
L78885 61401
" />
<path d="M78885 61401
L78830 61368
" />
<path d="M78830 61368
L78775 61335
" />
<path d="M78775 61335
L78714 61299
" />
<path d="M78714 61299
L78664 61269
" />
<path d="M78664 61269
L78607 61235
" />
<path d="M78607 61235
L78554 61203
" />
<path d="M78554 61203
L78488 61164
" />
<path d="M78488 61164
L78425 61126
" />
<path d="M78425 61126
L78373 61095
" />
<path d="M78373 61095
L78310 61057
" />
<path d="M78310 61057
L78257 61025
" />
<path d="M78257 61025
L78193 60987
" />
<path d="M78193 60987
L78134 60951
" />
<path d="M78134 60951
L78069 60912
" />
<path d="M78069 60912
L78003 60873
" />
<path d="M78003 60873
L77949 60841
" />
<path d="M77949 60841
L77895 60808
" />
<path d="M77895 60808
L77828 60768
" />
<path d="M77828 60768
L77774 60735
" />
<path d="M77774 60735
L77707 60695
" />
<path d="M77707 60695
L77633 60651
" />
<path d="M77633 60651
L77577 60617
" />
<path d="M77577 60617
L77571 60614
" />
<path d="M80274 62223
L80220 62191
" />
<path d="M80220 62191
L80168 62161
" />
<path d="M80168 62161
L80117 62131
" />
<path d="M80117 62131
L80064 62100
" />
<path d="M80064 62100
L80013 62070
" />
<path d="M80013 62070
L79957 62037
" />
<path d="M79957 62037
L79902 62005
" />
<path d="M79902 62005
L79847 61972
" />
<path d="M79847 61972
L79793 61941
" />
<path d="M79793 61941
L79742 61911
" />
<path d="M79742 61911
L79686 61877
" />
<path d="M79686 61877
L79628 61843
" />
<path d="M79628 61843
L79570 61808
" />
<path d="M79570 61808
L79511 61773
" />
<path d="M79511 61773
L79461 61744
" />
<path d="M79461 61744
L79410 61714
" />
<path d="M79410 61714
L79360 61684
" />
<path d="M79360 61684
L79309 61653
" />
<path d="M79309 61653
L79257 61623
" />
<path d="M79257 61623
L79205 61592
" />
<path d="M79205 61592
L79153 61561
" />
<path d="M79153 61561
L79100 61529
" />
<path d="M79100 61529
L79052 61501
" />
<path d="M81324 62801
L81272 62774
" />
<path d="M81272 62774
L81221 62746
" />
<path d="M81221 62746
L81167 62717
" />
<path d="M81167 62717
L81113 62688
" />
<path d="M81113 62688
L81061 62660
" />
<path d="M81061 62660
L81009 62631
" />
<path d="M81009 62631
L80954 62601
" />
<path d="M80954 62601
L80900 62571
" />
<path d="M80900 62571
L80848 62542
" />
<path d="M80848 62542
L80795 62513
" />
<path d="M80795 62513
L80742 62483
" />
<path d="M80742 62483
L80683 62450
" />
<path d="M80683 62450
L80625 62417
" />
<path d="M80625 62417
L80573 62388
" />
<path d="M80573 62388
L80519 62358
" />
<path d="M80519 62358
L80466 62328
" />
<path d="M80466 62328
L80412 62299
" />
<path d="M80412 62299
L80358 62269
" />
<path d="M80358 62269
L80304 62239
" />
<path d="M80304 62239
L80274 62223
" />
<path d="M81895 63082
L81840 63057
" />
<path d="M81840 63057
L81785 63032
" />
<path d="M81785 63032
L81729 63006
" />
<path d="M81729 63006
L81673 62979
" />
<path d="M81673 62979
L81619 62953
" />
<path d="M81619 62953
L81565 62926
" />
<path d="M81565 62926
L81513 62900
" />
<path d="M81513 62900
L81459 62872
" />
<path d="M81459 62872
L81404 62843
" />
<path d="M81404 62843
L81352 62816
" />
<path d="M81352 62816
L81324 62801
" />
<path d="M82485 63306
L82425 63287
" />
<path d="M82425 63287
L82364 63267
" />
<path d="M82364 63267
L82305 63246
" />
<path d="M82305 63246
L82245 63225
" />
<path d="M82245 63225
L82187 63203
" />
<path d="M82187 63203
L82130 63181
" />
<path d="M82130 63181
L82073 63158
" />
<path d="M82073 63158
L82015 63134
" />
<path d="M82015 63134
L81958 63110
" />
<path d="M81958 63110
L81902 63085
" />
<path d="M81902 63085
L81895 63082
" />
<path d="M83079 63438
L83009 63428
" />
<path d="M83009 63428
L82937 63417
" />
<path d="M82937 63417
L82870 63404
" />
<path d="M82870 63404
L82802 63390
" />
<path d="M82802 63390
L82737 63375
" />
<path d="M82737 63375
L82672 63359
" />
<path d="M82672 63359
L82610 63343
" />
<path d="M82610 63343
L82547 63325
" />
<path d="M82547 63325
L82486 63307
" />
<path d="M82486 63307
L82485 63306
" />
<path d="M83664 63442
L83592 63449
" />
<path d="M83592 63449
L83519 63455
" />
<path d="M83519 63455
L83443 63457
" />
<path d="M83443 63457
L83361 63458
" />
<path d="M83361 63458
L83280 63455
" />
<path d="M83280 63455
L83205 63450
" />
<path d="M83205 63450
L83131 63444
" />
<path d="M83131 63444
L83079 63438
" />
<path d="M84224 63282
L84169 63306
" />
<path d="M84169 63306
L84109 63331
" />
<path d="M84109 63331
L84051 63352
" />
<path d="M84051 63352
L83991 63372
" />
<path d="M83991 63372
L83930 63389
" />
<path d="M83930 63389
L83866 63405
" />
<path d="M83866 63405
L83801 63420
" />
<path d="M83801 63420
L83734 63432
" />
<path d="M83734 63432
L83664 63441
" />
<path d="M83664 63441
L83664 63442
" />
<path d="M84745 62924
L84704 62962
" />
<path d="M84704 62962
L84662 62999
" />
<path d="M84662 62999
L84616 63037
" />
<path d="M84616 63037
L84571 63072
" />
<path d="M84571 63072
L84525 63105
" />
<path d="M84525 63105
L84479 63138
" />
<path d="M84479 63138
L84429 63170
" />
<path d="M84429 63170
L84380 63200
" />
<path d="M84380 63200
L84328 63230
" />
<path d="M84328 63230
L84275 63257
" />
<path d="M84275 63257
L84224 63282
" />
<path d="M85214 62332
L85183 62381
" />
<path d="M85183 62381
L85152 62430
" />
<path d="M85152 62430
L85120 62477
" />
<path d="M85120 62477
L85088 62525
" />
<path d="M85088 62525
L85055 62571
" />
<path d="M85055 62571
L85019 62618
" />
<path d="M85019 62618
L84985 62662
" />
<path d="M84985 62662
L84949 62706
" />
<path d="M84949 62706
L84913 62749
" />
<path d="M84913 62749
L84874 62792
" />
<path d="M84874 62792
L84836 62833
" />
<path d="M84836 62833
L84797 62874
" />
<path d="M84797 62874
L84756 62913
" />
<path d="M84756 62913
L84745 62924
" />
<path d="M85700 61525
L85669 61577
" />
<path d="M85669 61577
L85639 61627
" />
<path d="M85639 61627
L85608 61679
" />
<path d="M85608 61679
L85578 61729
" />
<path d="M85578 61729
L85546 61781
" />
<path d="M85546 61781
L85515 61833
" />
<path d="M85515 61833
L85482 61889
" />
<path d="M85482 61889
L85451 61939
" />
<path d="M85451 61939
L85420 61991
" />
<path d="M85420 61991
L85387 62046
" />
<path d="M85387 62046
L85354 62100
" />
<path d="M85354 62100
L85323 62151
" />
<path d="M85323 62151
L85290 62206
" />
<path d="M85290 62206
L85255 62263
" />
<path d="M85255 62263
L85218 62324
" />
<path d="M85218 62324
L85214 62332
" />
<path d="M86057 60922
L86027 60973
" />
<path d="M86027 60973
L85995 61028
" />
<path d="M85995 61028
L85966 61078
" />
<path d="M85966 61078
L85936 61128
" />
<path d="M85936 61128
L85904 61182
" />
<path d="M85904 61182
L85874 61233
" />
<path d="M85874 61233
L85844 61283
" />
<path d="M85844 61283
L85813 61336
" />
<path d="M85813 61336
L85782 61388
" />
<path d="M85782 61388
L85752 61438
" />
<path d="M85752 61438
L85721 61490
" />
<path d="M85721 61490
L85700 61525
" />
<path d="M86334 60439
L86305 60490
" />
<path d="M86305 60490
L86275 60543
" />
<path d="M86275 60543
L86246 60595
" />
<path d="M86246 60595
L86217 60645
" />
<path d="M86217 60645
L86186 60699
" />
<path d="M86186 60699
L86155 60752
" />
<path d="M86155 60752
L86126 60803
" />
<path d="M86126 60803
L86096 60855
" />
<path d="M86096 60855
L86066 60906
" />
<path d="M86066 60906
L86057 60922
" />
<path d="M86578 59993
L86551 60044
" />
<path d="M86551 60044
L86522 60097
" />
<path d="M86522 60097
L86494 60149
" />
<path d="M86494 60149
L86466 60200
" />
<path d="M86466 60200
L86437 60253
" />
<path d="M86437 60253
L86406 60308
" />
<path d="M86406 60308
L86377 60360
" />
<path d="M86377 60360
L86349 60412
" />
<path d="M86349 60412
L86334 60439
" />
<path d="M86841 59501
L86812 59556
" />
<path d="M86812 59556
L86783 59610
" />
<path d="M86783 59610
L86752 59669
" />
<path d="M86752 59669
L86723 59723
" />
<path d="M86723 59723
L86695 59775
" />
<path d="M86695 59775
L86666 59829
" />
<path d="M86666 59829
L86639 59881
" />
<path d="M86639 59881
L86610 59934
" />
<path d="M86610 59934
L86581 59987
" />
<path d="M86581 59987
L86578 59993
" />
<path d="M87170 58881
L87138 58941
" />
<path d="M87138 58941
L87109 58995
" />
<path d="M87109 58995
L87082 59048
" />
<path d="M87082 59048
L87052 59104
" />
<path d="M87052 59104
L87020 59164
" />
<path d="M87020 59164
L86989 59222
" />
<path d="M86989 59222
L86959 59279
" />
<path d="M86959 59279
L86925 59343
" />
<path d="M86925 59343
L86891 59406
" />
<path d="M86891 59406
L86864 59458
" />
<path d="M86864 59458
L86841 59501
" />
<path d="M87615 58049
L87586 58102
" />
<path d="M87586 58102
L87555 58160
" />
<path d="M87555 58160
L87524 58218
" />
<path d="M87524 58218
L87494 58275
" />
<path d="M87494 58275
L87464 58330
" />
<path d="M87464 58330
L87435 58384
" />
<path d="M87435 58384
L87404 58441
" />
<path d="M87404 58441
L87376 58494
" />
<path d="M87376 58494
L87344 58554
" />
<path d="M87344 58554
L87311 58617
" />
<path d="M87311 58617
L87280 58675
" />
<path d="M87280 58675
L87246 58738
" />
<path d="M87246 58738
L87215 58796
" />
<path d="M87215 58796
L87185 58853
" />
<path d="M87185 58853
L87170 58881
" />
<path d="M88224 56923
L88193 56979
" />
<path d="M88193 56979
L88161 57038
" />
<path d="M88161 57038
L88129 57097
" />
<path d="M88129 57097
L88097 57156
" />
<path d="M88097 57156
L88069 57208
" />
<path d="M88069 57208
L88041 57260
" />
<path d="M88041 57260
L88011 57314
" />
<path d="M88011 57314
L87980 57371
" />
<path d="M87980 57371
L87948 57430
" />
<path d="M87948 57430
L87919 57484
" />
<path d="M87919 57484
L87888 57541
" />
<path d="M87888 57541
L87860 57593
" />
<path d="M87860 57593
L87832 57645
" />
<path d="M87832 57645
L87798 57708
" />
<path d="M87798 57708
L87769 57762
" />
<path d="M87769 57762
L87739 57819
" />
<path d="M87739 57819
L87710 57871
" />
<path d="M87710 57871
L87679 57930
" />
<path d="M87679 57930
L87649 57984
" />
<path d="M87649 57984
L87621 58038
" />
<path d="M87621 58038
L87615 58049
" />
<path d="M88504 56240
L88486 56306
" />
<path d="M88486 56306
L88467 56367
" />
<path d="M88467 56367
L88447 56426
" />
<path d="M88447 56426
L88425 56486
" />
<path d="M88425 56486
L88402 56546
" />
<path d="M88402 56546
L88379 56602
" />
<path d="M88379 56602
L88355 56658
" />
<path d="M88355 56658
L88330 56713
" />
<path d="M88330 56713
L88304 56766
" />
<path d="M88304 56766
L88278 56819
" />
<path d="M88278 56819
L88251 56871
" />
<path d="M88251 56871
L88224 56923
" />
<path d="M88580 55643
L88580 55722
" />
<path d="M88580 55722
L88577 55798
" />
<path d="M88577 55798
L88572 55872
" />
<path d="M88572 55872
L88564 55944
" />
<path d="M88564 55944
L88553 56014
" />
<path d="M88553 56014
L88541 56084
" />
<path d="M88541 56084
L88527 56150
" />
<path d="M88527 56150
L88511 56214
" />
<path d="M88511 56214
L88504 56240
" />
<path d="M88495 55118
L88513 55180
" />
<path d="M88513 55180
L88529 55243
" />
<path d="M88529 55243
L88544 55309
" />
<path d="M88544 55309
L88556 55376
" />
<path d="M88556 55376
L88566 55446
" />
<path d="M88566 55446
L88574 55517
" />
<path d="M88574 55517
L88579 55591
" />
<path d="M88579 55591
L88580 55643
" />
<path d="M88291 54652
L88320 54703
" />
<path d="M88320 54703
L88347 54756
" />
<path d="M88347 54756
L88374 54809
" />
<path d="M88374 54809
L88399 54863
" />
<path d="M88399 54863
L88423 54918
" />
<path d="M88423 54918
L88445 54975
" />
<path d="M88445 54975
L88467 55032
" />
<path d="M88467 55032
L88487 55093
" />
<path d="M88487 55093
L88495 55118
" />
<path d="M87988 54236
L88024 54278
" />
<path d="M88024 54278
L88061 54322
" />
<path d="M88061 54322
L88096 54366
" />
<path d="M88096 54366
L88132 54411
" />
<path d="M88132 54411
L88166 54457
" />
<path d="M88166 54457
L88198 54503
" />
<path d="M88198 54503
L88231 54552
" />
<path d="M88231 54552
L88262 54602
" />
<path d="M88262 54602
L88291 54652
" />
<path d="M87377 53637
L87415 53680
" />
<path d="M87415 53680
L87454 53722
" />
<path d="M87454 53722
L87493 53763
" />
<path d="M87493 53763
L87533 53804
" />
<path d="M87533 53804
L87575 53847
" />
<path d="M87575 53847
L87617 53888
" />
<path d="M87617 53888
L87659 53928
" />
<path d="M87659 53928
L87701 53968
" />
<path d="M87701 53968
L87746 54010
" />
<path d="M87746 54010
L87789 54051
" />
<path d="M87789 54051
L87831 54089
" />
<path d="M87831 54089
L87875 54130
" />
<path d="M87875 54130
L87916 54169
" />
<path d="M87916 54169
L87959 54209
" />
<path d="M87959 54209
L87988 54236
" />
<path d="M86993 53193
L87028 53237
" />
<path d="M87028 53237
L87064 53283
" />
<path d="M87064 53283
L87100 53328
" />
<path d="M87100 53328
L87136 53371
" />
<path d="M87136 53371
L87173 53415
" />
<path d="M87173 53415
L87211 53459
" />
<path d="M87211 53459
L87249 53501
" />
<path d="M87249 53501
L87286 53542
" />
<path d="M87286 53542
L87325 53584
" />
<path d="M87325 53584
L87364 53624
" />
<path d="M87364 53624
L87377 53637
" />
<path d="M86745 52823
L86774 52873
" />
<path d="M86774 52873
L86804 52922
" />
<path d="M86804 52922
L86835 52972
" />
<path d="M86835 52972
L86867 53019
" />
<path d="M86867 53019
L86900 53067
" />
<path d="M86900 53067
L86934 53113
" />
<path d="M86934 53113
L86968 53159
" />
<path d="M86968 53159
L86993 53193
" />
<path d="M86676 52693
L86703 52746
" />
<path d="M86703 52746
L86731 52798
" />
<path d="M86731 52798
L86745 52823
" />
<path d="M86593 52512
L86617 52567
" />
<path d="M86617 52567
L86642 52622
" />
<path d="M86642 52622
L86668 52676
" />
<path d="M86668 52676
L86676 52693
" />
<path d="M86503 52275
L86523 52333
" />
<path d="M86523 52333
L86545 52393
" />
<path d="M86545 52393
L86567 52450
" />
<path d="M86567 52450
L86590 52506
" />
<path d="M86590 52506
L86593 52512
" />
<path d="M86414 51976
L86431 52039
" />
<path d="M86431 52039
L86448 52101
" />
<path d="M86448 52101
L86467 52162
" />
<path d="M86467 52162
L86486 52223
" />
<path d="M86486 52223
L86503 52275
" />
<path d="M86334 51610
L86347 51677
" />
<path d="M86347 51677
L86360 51745
" />
<path d="M86360 51745
L86375 51811
" />
<path d="M86375 51811
L86389 51876
" />
<path d="M86389 51876
L86405 51942
" />
<path d="M86405 51942
L86414 51976
" />
<path d="M86270 51169
L86278 51241
" />
<path d="M86278 51241
L86287 51311
" />
<path d="M86287 51311
L86297 51381
" />
<path d="M86297 51381
L86307 51451
" />
<path d="M86307 51451
L86318 51519
" />
<path d="M86318 51519
L86330 51587
" />
<path d="M86330 51587
L86334 51610
" />
<path d="M86230 50650
L86234 50727
" />
<path d="M86234 50727
L86238 50803
" />
<path d="M86238 50803
L86243 50878
" />
<path d="M86243 50878
L86249 50951
" />
<path d="M86249 50951
L86255 51025
" />
<path d="M86255 51025
L86262 51097
" />
<path d="M86262 51097
L86270 51169
" />
<path d="M86270 51169
L86270 51169
" />
<path d="M86221 50045
L86220 50125
" />
<path d="M86220 50125
L86219 50204
" />
<path d="M86219 50204
L86220 50282
" />
<path d="M86220 50282
L86221 50360
" />
<path d="M86221 50360
L86222 50439
" />
<path d="M86222 50439
L86224 50517
" />
<path d="M86224 50517
L86227 50596
" />
<path d="M86227 50596
L86230 50650
" />
<path d="M86220 48437
L86220 50042
" />
<path d="M86220 45024
L86220 48437
" />
<path d="M86220 40356
L86220 45024
" />
<path d="M86220 34985
L86220 40356
" />
<path d="M86220 29464
L86220 34985
" />
<path d="M86220 24346
L86220 29464
" />
<path d="M86220 20182
L86220 24346
" />
<path d="M72175 12204
L77473 12204
" />
<path d="M65172 12204
L72175 12204
" />
<path d="M57325 12204
L65172 12204
" />
<path d="M49495 12204
L57325 12204
" />
<path d="M42544 12204
L49495 12204
" />
<path d="M37334 12204
L42544 12204
" />
<path d="M34726 12204
L37334 12204
" />
</g> 
</svg>
